<svg version="1.1" xmlns="http://www.w3.org/2000/svg" width="100" height="100"><style>text {
  font-size: 14px;
  text-anchor: middle;
  font-family: Arial, Helvetica, sans-serif;
}

.tile polygon {
  fill: hsl(60, 10%, 95%);
  stroke: hsl(0, 0%, 70%);
  stroke-width: 0.5;
}

.path {
  fill: none;
  stroke: hsl(60, 20%, 15%);
  stroke-width: 12px;
  stroke-opacity: 0.4;
  stroke-linecap: round;
  stroke-linejoin: round;
}

.q {
  fill: hsl(90, 100%, 35%);
}

.r {
  fill: hsl(200, 100%, 45%);
}

.s {
  fill: hsl(300, 80%, 50%);
}

.highlight polygon {
  fill: hsl(200, 50%, 80%);
}

.highlight-dark polygon {
  fill: hsl(200, 10%, 35%);
}

.marker {
  fill: #308dde;
}

.center {
  fill: hsl(160, 85%, 75%);
}

.circle {
  fill: hsla(240, 5%, 75%, 0.12);
  stroke: hsl(0, 0%, 70%);
  stroke-width: 0.5;
  stroke-opacity: 0.95;
}
</style><g transform="translate(15.5285444171558,18.180194846605353)"><g class="tile" style="opacity: 1;" transform="translate(0,0)"><g class="polygon"><polygon points="5.303,-5.303 5.303,5.303 -5.303,5.303 -5.303,-5.303" transform="rotate(0)"></polygon></g><g class="center"></g><g class="circle"></g><g class="axes"></g><g class="coordinates"></g><g class="tiles"></g><g class="values"></g></g><g class="tile" style="opacity: 1;" transform="translate(5.303300858899107,10.606601717798213)"><g class="polygon"><polygon points="5.303,-5.303 5.303,5.303 -5.303,5.303 -5.303,-5.303" transform="rotate(0)"></polygon></g><g class="center"></g><g class="circle"></g><g class="axes"></g><g class="coordinates"></g><g class="tiles"></g><g class="values"></g></g><g class="tile" style="opacity: 1;" transform="translate(0,21.213203435596427)"><g class="polygon"><polygon points="5.303,-5.303 5.303,5.303 -5.303,5.303 -5.303,-5.303" transform="rotate(0)"></polygon></g><g class="center"></g><g class="circle"></g><g class="axes"></g><g class="coordinates"></g><g class="tiles"></g><g class="values"></g></g><g class="tile" style="opacity: 1;" transform="translate(5.3033008588991075,31.819805153394643)"><g class="polygon"><polygon points="5.303,-5.303 5.303,5.303 -5.303,5.303 -5.303,-5.303" transform="rotate(0)"></polygon></g><g class="center"></g><g class="circle"></g><g class="axes"></g><g class="coordinates"></g><g class="tiles"></g><g class="values"></g></g><g class="tile" style="opacity: 1;" transform="translate(0,42.42640687119285)"><g class="polygon"><polygon points="5.303,-5.303 5.303,5.303 -5.303,5.303 -5.303,-5.303" transform="rotate(0)"></polygon></g><g class="center"></g><g class="circle"></g><g class="axes"></g><g class="coordinates"></g><g class="tiles"></g><g class="values"></g></g><g class="tile" style="opacity: 1;" transform="translate(5.303300858899106,53.033008588991066)"><g class="polygon"><polygon points="5.303,-5.303 5.303,5.303 -5.303,5.303 -5.303,-5.303" transform="rotate(0)"></polygon></g><g class="center"></g><g class="circle"></g><g class="axes"></g><g class="coordinates"></g><g class="tiles"></g><g class="values"></g></g><g class="tile" style="opacity: 1;" transform="translate(0,63.63961030678929)"><g class="polygon"><polygon points="5.303,-5.303 5.303,5.303 -5.303,5.303 -5.303,-5.303" transform="rotate(0)"></polygon></g><g class="center"></g><g class="circle"></g><g class="axes"></g><g class="coordinates"></g><g class="tiles"></g><g class="values"></g></g><g class="tile" style="opacity: 1;" transform="translate(10.606601717798213,0)"><g class="polygon"><polygon points="5.303,-5.303 5.303,5.303 -5.303,5.303 -5.303,-5.303" transform="rotate(0)"></polygon></g><g class="center"></g><g class="circle"></g><g class="axes"></g><g class="coordinates"></g><g class="tiles"></g><g class="values"></g></g><g class="tile" style="opacity: 1;" transform="translate(15.909902576697322,10.606601717798213)"><g class="polygon"><polygon points="5.303,-5.303 5.303,5.303 -5.303,5.303 -5.303,-5.303" transform="rotate(0)"></polygon></g><g class="center"></g><g class="circle"></g><g class="axes"></g><g class="coordinates"></g><g class="tiles"></g><g class="values"></g></g><g class="tile" style="opacity: 1;" transform="translate(10.606601717798213,21.213203435596427)"><g class="polygon"><polygon points="5.303,-5.303 5.303,5.303 -5.303,5.303 -5.303,-5.303" transform="rotate(0)"></polygon></g><g class="center"></g><g class="circle"></g><g class="axes"></g><g class="coordinates"></g><g class="tiles"></g><g class="values"></g></g><g class="tile" style="opacity: 1;" transform="translate(15.909902576697322,31.819805153394643)"><g class="polygon"><polygon points="5.303,-5.303 5.303,5.303 -5.303,5.303 -5.303,-5.303" transform="rotate(0)"></polygon></g><g class="center"></g><g class="circle"></g><g class="axes"></g><g class="coordinates"></g><g class="tiles"></g><g class="values"></g></g><g class="tile" style="opacity: 1;" transform="translate(10.606601717798213,42.42640687119285)"><g class="polygon"><polygon points="5.303,-5.303 5.303,5.303 -5.303,5.303 -5.303,-5.303" transform="rotate(0)"></polygon></g><g class="center"></g><g class="circle"></g><g class="axes"></g><g class="coordinates"></g><g class="tiles"></g><g class="values"></g></g><g class="tile" style="opacity: 1;" transform="translate(15.909902576697322,53.033008588991066)"><g class="polygon"><polygon points="5.303,-5.303 5.303,5.303 -5.303,5.303 -5.303,-5.303" transform="rotate(0)"></polygon></g><g class="center"></g><g class="circle"></g><g class="axes"></g><g class="coordinates"></g><g class="tiles"></g><g class="values"></g></g><g class="tile" style="opacity: 1;" transform="translate(10.606601717798215,63.63961030678929)"><g class="polygon"><polygon points="5.303,-5.303 5.303,5.303 -5.303,5.303 -5.303,-5.303" transform="rotate(0)"></polygon></g><g class="center"></g><g class="circle"></g><g class="axes"></g><g class="coordinates"></g><g class="tiles"></g><g class="values"></g></g><g class="tile" style="opacity: 1;" transform="translate(21.213203435596427,0)"><g class="polygon"><polygon points="5.303,-5.303 5.303,5.303 -5.303,5.303 -5.303,-5.303" transform="rotate(0)"></polygon></g><g class="center"></g><g class="circle"></g><g class="axes"></g><g class="coordinates"></g><g class="tiles"></g><g class="values"></g></g><g class="tile" style="opacity: 1;" transform="translate(26.516504294495533,10.606601717798213)"><g class="polygon"><polygon points="5.303,-5.303 5.303,5.303 -5.303,5.303 -5.303,-5.303" transform="rotate(0)"></polygon></g><g class="center"></g><g class="circle"></g><g class="axes"></g><g class="coordinates"></g><g class="tiles"></g><g class="values"></g></g><g class="tile" style="opacity: 1;" transform="translate(21.213203435596427,21.213203435596427)"><g class="polygon"><polygon points="5.303,-5.303 5.303,5.303 -5.303,5.303 -5.303,-5.303" transform="rotate(0)"></polygon></g><g class="center"></g><g class="circle"></g><g class="axes"></g><g class="coordinates"></g><g class="tiles"></g><g class="values"></g></g><g class="tile" style="opacity: 1;" transform="translate(26.516504294495533,31.819805153394643)"><g class="polygon"><polygon points="5.303,-5.303 5.303,5.303 -5.303,5.303 -5.303,-5.303" transform="rotate(0)"></polygon></g><g class="center"></g><g class="circle"></g><g class="axes"></g><g class="coordinates"></g><g class="tiles"></g><g class="values"></g></g><g class="tile" style="opacity: 1;" transform="translate(21.213203435596427,42.42640687119285)"><g class="polygon"><polygon points="5.303,-5.303 5.303,5.303 -5.303,5.303 -5.303,-5.303" transform="rotate(0)"></polygon></g><g class="center"></g><g class="circle"></g><g class="axes"></g><g class="coordinates"></g><g class="tiles"></g><g class="values"></g></g><g class="tile" style="opacity: 1;" transform="translate(26.516504294495533,53.033008588991066)"><g class="polygon"><polygon points="5.303,-5.303 5.303,5.303 -5.303,5.303 -5.303,-5.303" transform="rotate(0)"></polygon></g><g class="center"></g><g class="circle"></g><g class="axes"></g><g class="coordinates"></g><g class="tiles"></g><g class="values"></g></g><g class="tile" style="opacity: 1;" transform="translate(21.21320343559643,63.63961030678929)"><g class="polygon"><polygon points="5.303,-5.303 5.303,5.303 -5.303,5.303 -5.303,-5.303" transform="rotate(0)"></polygon></g><g class="center"></g><g class="circle"></g><g class="axes"></g><g class="coordinates"></g><g class="tiles"></g><g class="values"></g></g><g class="tile" style="opacity: 1;" transform="translate(31.819805153394643,0)"><g class="polygon"><polygon points="5.303,-5.303 5.303,5.303 -5.303,5.303 -5.303,-5.303" transform="rotate(0)"></polygon></g><g class="center"></g><g class="circle"></g><g class="axes"></g><g class="coordinates"></g><g class="tiles"></g><g class="values"></g></g><g class="tile" style="opacity: 1;" transform="translate(37.12310601229375,10.606601717798213)"><g class="polygon"><polygon points="5.303,-5.303 5.303,5.303 -5.303,5.303 -5.303,-5.303" transform="rotate(0)"></polygon></g><g class="center"></g><g class="circle"></g><g class="axes"></g><g class="coordinates"></g><g class="tiles"></g><g class="values"></g></g><g class="tile" style="opacity: 1;" transform="translate(31.819805153394643,21.213203435596427)"><g class="polygon"><polygon points="5.303,-5.303 5.303,5.303 -5.303,5.303 -5.303,-5.303" transform="rotate(0)"></polygon></g><g class="center"></g><g class="circle"></g><g class="axes"></g><g class="coordinates"></g><g class="tiles"></g><g class="values"></g></g><g class="tile" style="opacity: 1;" transform="translate(37.12310601229375,31.819805153394643)"><g class="polygon"><polygon points="5.303,-5.303 5.303,5.303 -5.303,5.303 -5.303,-5.303" transform="rotate(0)"></polygon></g><g class="center"></g><g class="circle"></g><g class="axes"></g><g class="coordinates"></g><g class="tiles"></g><g class="values"></g></g><g class="tile" style="opacity: 1;" transform="translate(31.819805153394643,42.42640687119285)"><g class="polygon"><polygon points="5.303,-5.303 5.303,5.303 -5.303,5.303 -5.303,-5.303" transform="rotate(0)"></polygon></g><g class="center"></g><g class="circle"></g><g class="axes"></g><g class="coordinates"></g><g class="tiles"></g><g class="values"></g></g><g class="tile" style="opacity: 1;" transform="translate(37.123106012293746,53.033008588991066)"><g class="polygon"><polygon points="5.303,-5.303 5.303,5.303 -5.303,5.303 -5.303,-5.303" transform="rotate(0)"></polygon></g><g class="center"></g><g class="circle"></g><g class="axes"></g><g class="coordinates"></g><g class="tiles"></g><g class="values"></g></g><g class="tile" style="opacity: 1;" transform="translate(31.819805153394643,63.63961030678929)"><g class="polygon"><polygon points="5.303,-5.303 5.303,5.303 -5.303,5.303 -5.303,-5.303" transform="rotate(0)"></polygon></g><g class="center"></g><g class="circle"></g><g class="axes"></g><g class="coordinates"></g><g class="tiles"></g><g class="values"></g></g><g class="tile" style="opacity: 1;" transform="translate(42.42640687119285,0)"><g class="polygon"><polygon points="5.303,-5.303 5.303,5.303 -5.303,5.303 -5.303,-5.303" transform="rotate(0)"></polygon></g><g class="center"></g><g class="circle"></g><g class="axes"></g><g class="coordinates"></g><g class="tiles"></g><g class="values"></g></g><g class="tile" style="opacity: 1;" transform="translate(47.72970773009197,10.606601717798213)"><g class="polygon"><polygon points="5.303,-5.303 5.303,5.303 -5.303,5.303 -5.303,-5.303" transform="rotate(0)"></polygon></g><g class="center"></g><g class="circle"></g><g class="axes"></g><g class="coordinates"></g><g class="tiles"></g><g class="values"></g></g><g class="tile" style="opacity: 1;" transform="translate(42.42640687119285,21.213203435596427)"><g class="polygon"><polygon points="5.303,-5.303 5.303,5.303 -5.303,5.303 -5.303,-5.303" transform="rotate(0)"></polygon></g><g class="center"></g><g class="circle"></g><g class="axes"></g><g class="coordinates"></g><g class="tiles"></g><g class="values"></g></g><g class="tile" style="opacity: 1;" transform="translate(47.72970773009197,31.819805153394643)"><g class="polygon"><polygon points="5.303,-5.303 5.303,5.303 -5.303,5.303 -5.303,-5.303" transform="rotate(0)"></polygon></g><g class="center"></g><g class="circle"></g><g class="axes"></g><g class="coordinates"></g><g class="tiles"></g><g class="values"></g></g><g class="tile" style="opacity: 1;" transform="translate(42.42640687119285,42.42640687119285)"><g class="polygon"><polygon points="5.303,-5.303 5.303,5.303 -5.303,5.303 -5.303,-5.303" transform="rotate(0)"></polygon></g><g class="center"></g><g class="circle"></g><g class="axes"></g><g class="coordinates"></g><g class="tiles"></g><g class="values"></g></g><g class="tile" style="opacity: 1;" transform="translate(47.72970773009196,53.033008588991066)"><g class="polygon"><polygon points="5.303,-5.303 5.303,5.303 -5.303,5.303 -5.303,-5.303" transform="rotate(0)"></polygon></g><g class="center"></g><g class="circle"></g><g class="axes"></g><g class="coordinates"></g><g class="tiles"></g><g class="values"></g></g><g class="tile" style="opacity: 1;" transform="translate(42.42640687119285,63.63961030678929)"><g class="polygon"><polygon points="5.303,-5.303 5.303,5.303 -5.303,5.303 -5.303,-5.303" transform="rotate(0)"></polygon></g><g class="center"></g><g class="circle"></g><g class="axes"></g><g class="coordinates"></g><g class="tiles"></g><g class="values"></g></g><g class="tile" style="opacity: 1;" transform="translate(53.033008588991066,0)"><g class="polygon"><polygon points="5.303,-5.303 5.303,5.303 -5.303,5.303 -5.303,-5.303" transform="rotate(0)"></polygon></g><g class="center"></g><g class="circle"></g><g class="axes"></g><g class="coordinates"></g><g class="tiles"></g><g class="values"></g></g><g class="tile" style="opacity: 1;" transform="translate(58.33630944789017,10.606601717798213)"><g class="polygon"><polygon points="5.303,-5.303 5.303,5.303 -5.303,5.303 -5.303,-5.303" transform="rotate(0)"></polygon></g><g class="center"></g><g class="circle"></g><g class="axes"></g><g class="coordinates"></g><g class="tiles"></g><g class="values"></g></g><g class="tile" style="opacity: 1;" transform="translate(53.033008588991066,21.213203435596427)"><g class="polygon"><polygon points="5.303,-5.303 5.303,5.303 -5.303,5.303 -5.303,-5.303" transform="rotate(0)"></polygon></g><g class="center"></g><g class="circle"></g><g class="axes"></g><g class="coordinates"></g><g class="tiles"></g><g class="values"></g></g><g class="tile" style="opacity: 1;" transform="translate(58.33630944789017,31.819805153394643)"><g class="polygon"><polygon points="5.303,-5.303 5.303,5.303 -5.303,5.303 -5.303,-5.303" transform="rotate(0)"></polygon></g><g class="center"></g><g class="circle"></g><g class="axes"></g><g class="coordinates"></g><g class="tiles"></g><g class="values"></g></g><g class="tile" style="opacity: 1;" transform="translate(53.033008588991066,42.42640687119285)"><g class="polygon"><polygon points="5.303,-5.303 5.303,5.303 -5.303,5.303 -5.303,-5.303" transform="rotate(0)"></polygon></g><g class="center"></g><g class="circle"></g><g class="axes"></g><g class="coordinates"></g><g class="tiles"></g><g class="values"></g></g><g class="tile" style="opacity: 1;" transform="translate(58.33630944789017,53.033008588991066)"><g class="polygon"><polygon points="5.303,-5.303 5.303,5.303 -5.303,5.303 -5.303,-5.303" transform="rotate(0)"></polygon></g><g class="center"></g><g class="circle"></g><g class="axes"></g><g class="coordinates"></g><g class="tiles"></g><g class="values"></g></g><g class="tile" style="opacity: 1;" transform="translate(53.033008588991066,63.63961030678929)"><g class="polygon"><polygon points="5.303,-5.303 5.303,5.303 -5.303,5.303 -5.303,-5.303" transform="rotate(0)"></polygon></g><g class="center"></g><g class="circle"></g><g class="axes"></g><g class="coordinates"></g><g class="tiles"></g><g class="values"></g></g><g class="tile" style="opacity: 1;" transform="translate(63.63961030678929,0)"><g class="polygon"><polygon points="5.303,-5.303 5.303,5.303 -5.303,5.303 -5.303,-5.303" transform="rotate(0)"></polygon></g><g class="center"></g><g class="circle"></g><g class="axes"></g><g class="coordinates"></g><g class="tiles"></g><g class="values"></g></g><g class="tile" style="opacity: 1;" transform="translate(68.9429111656884,10.606601717798213)"><g class="polygon"><polygon points="5.303,-5.303 5.303,5.303 -5.303,5.303 -5.303,-5.303" transform="rotate(0)"></polygon></g><g class="center"></g><g class="circle"></g><g class="axes"></g><g class="coordinates"></g><g class="tiles"></g><g class="values"></g></g><g class="tile" style="opacity: 1;" transform="translate(63.63961030678929,21.213203435596427)"><g class="polygon"><polygon points="5.303,-5.303 5.303,5.303 -5.303,5.303 -5.303,-5.303" transform="rotate(0)"></polygon></g><g class="center"></g><g class="circle"></g><g class="axes"></g><g class="coordinates"></g><g class="tiles"></g><g class="values"></g></g><g class="tile" style="opacity: 1;" transform="translate(68.94291116568839,31.819805153394643)"><g class="polygon"><polygon points="5.303,-5.303 5.303,5.303 -5.303,5.303 -5.303,-5.303" transform="rotate(0)"></polygon></g><g class="center"></g><g class="circle"></g><g class="axes"></g><g class="coordinates"></g><g class="tiles"></g><g class="values"></g></g><g class="tile" style="opacity: 1;" transform="translate(63.63961030678929,42.42640687119285)"><g class="polygon"><polygon points="5.303,-5.303 5.303,5.303 -5.303,5.303 -5.303,-5.303" transform="rotate(0)"></polygon></g><g class="center"></g><g class="circle"></g><g class="axes"></g><g class="coordinates"></g><g class="tiles"></g><g class="values"></g></g><g class="tile" style="opacity: 1;" transform="translate(68.94291116568839,53.033008588991066)"><g class="polygon"><polygon points="5.303,-5.303 5.303,5.303 -5.303,5.303 -5.303,-5.303" transform="rotate(0)"></polygon></g><g class="center"></g><g class="circle"></g><g class="axes"></g><g class="coordinates"></g><g class="tiles"></g><g class="values"></g></g><g class="tile" style="opacity: 1;" transform="translate(63.63961030678929,63.63961030678929)"><g class="polygon"><polygon points="5.303,-5.303 5.303,5.303 -5.303,5.303 -5.303,-5.303" transform="rotate(0)"></polygon></g><g class="center"></g><g class="circle"></g><g class="axes"></g><g class="coordinates"></g><g class="tiles"></g><g class="values"></g></g></g><g transform="translate(15.5285444171558,18.180194846605353)"></g></svg>