<svg version="1.1" xmlns="http://www.w3.org/2000/svg" width="230" height="230"><style>text {
  font-size: 14px;
  text-anchor: middle;
  font-family: Arial, Helvetica, sans-serif;
}

.tile polygon {
  fill: hsl(60, 10%, 95%);
  stroke: hsl(0, 0%, 70%);
  stroke-width: 0.5;
}

.path {
  fill: none;
  stroke: hsl(60, 20%, 15%);
  stroke-width: 12px;
  stroke-opacity: 0.4;
  stroke-linecap: round;
  stroke-linejoin: round;
}

.q {
  fill: hsl(90, 100%, 35%);
}

.r {
  fill: hsl(200, 100%, 45%);
}

.s {
  fill: hsl(300, 80%, 50%);
}

.highlight polygon {
  fill: hsl(200, 50%, 80%);
}

.highlight-dark polygon {
  fill: hsl(200, 10%, 35%);
}

.marker {
  fill: #308dde;
}

.center {
  fill: hsl(160, 85%, 75%);
}

.circle {
  fill: hsla(240, 5%, 75%, 0.12);
  stroke: hsl(0, 0%, 70%);
  stroke-width: 0.5;
  stroke-opacity: 0.95;
}
</style><g transform="translate(27.318759132868095,27.318759132868095)"><g class="tile" style="opacity: 1;" transform="translate(0,0)"><g class="polygon"><polygon points="10.960,-10.960 10.960,10.960 -10.960,10.960 -10.960,-10.960" transform="rotate(0)"></polygon></g><g class="center"></g><g class="circle"></g><g class="axes"></g><g class="coordinates"></g><g class="tiles"></g><g class="values"></g></g><g class="tile" style="opacity: 1;" transform="translate(10.960155108391488,21.920310216782976)"><g class="polygon"><polygon points="10.960,-10.960 10.960,10.960 -10.960,10.960 -10.960,-10.960" transform="rotate(0)"></polygon></g><g class="center"></g><g class="circle"></g><g class="axes"></g><g class="coordinates"></g><g class="tiles"></g><g class="values"></g></g><g class="tile" style="opacity: 1;" transform="translate(21.920310216782976,0)"><g class="polygon"><polygon points="10.960,-10.960 10.960,10.960 -10.960,10.960 -10.960,-10.960" transform="rotate(0)"></polygon></g><g class="center"></g><g class="circle"></g><g class="axes"></g><g class="coordinates"></g><g class="tiles"></g><g class="values"></g></g><g class="tile" style="opacity: 1;" transform="translate(21.920310216782976,43.84062043356595)"><g class="polygon"><polygon points="10.960,-10.960 10.960,10.960 -10.960,10.960 -10.960,-10.960" transform="rotate(0)"></polygon></g><g class="center"></g><g class="circle"></g><g class="axes"></g><g class="coordinates"></g><g class="tiles"></g><g class="values"></g></g><g class="tile" style="opacity: 1;" transform="translate(32.88046532517446,21.920310216782976)"><g class="polygon"><polygon points="10.960,-10.960 10.960,10.960 -10.960,10.960 -10.960,-10.960" transform="rotate(0)"></polygon></g><g class="center"></g><g class="circle"></g><g class="axes"></g><g class="coordinates"></g><g class="tiles"></g><g class="values"></g></g><g class="tile" style="opacity: 1;" transform="translate(43.84062043356595,0)"><g class="polygon"><polygon points="10.960,-10.960 10.960,10.960 -10.960,10.960 -10.960,-10.960" transform="rotate(0)"></polygon></g><g class="center"></g><g class="circle"></g><g class="axes"></g><g class="coordinates"></g><g class="tiles"></g><g class="values"></g></g><g class="tile" style="opacity: 1;" transform="translate(32.88046532517446,65.76093065034893)"><g class="polygon"><polygon points="10.960,-10.960 10.960,10.960 -10.960,10.960 -10.960,-10.960" transform="rotate(0)"></polygon></g><g class="center"></g><g class="circle"></g><g class="axes"></g><g class="coordinates"></g><g class="tiles"></g><g class="values"></g></g><g class="tile" style="opacity: 1;" transform="translate(43.84062043356595,43.84062043356595)"><g class="polygon"><polygon points="10.960,-10.960 10.960,10.960 -10.960,10.960 -10.960,-10.960" transform="rotate(0)"></polygon></g><g class="center"></g><g class="circle"></g><g class="axes"></g><g class="coordinates"></g><g class="tiles"></g><g class="values"></g></g><g class="tile" style="opacity: 1;" transform="translate(54.800775541957435,21.920310216782976)"><g class="polygon"><polygon points="10.960,-10.960 10.960,10.960 -10.960,10.960 -10.960,-10.960" transform="rotate(0)"></polygon></g><g class="center"></g><g class="circle"></g><g class="axes"></g><g class="coordinates"></g><g class="tiles"></g><g class="values"></g></g><g class="tile" style="opacity: 1;" transform="translate(65.76093065034893,0)"><g class="polygon"><polygon points="10.960,-10.960 10.960,10.960 -10.960,10.960 -10.960,-10.960" transform="rotate(0)"></polygon></g><g class="center"></g><g class="circle"></g><g class="axes"></g><g class="coordinates"></g><g class="tiles"></g><g class="values"></g></g><g class="tile" style="opacity: 1;" transform="translate(43.84062043356595,87.6812408671319)"><g class="polygon"><polygon points="10.960,-10.960 10.960,10.960 -10.960,10.960 -10.960,-10.960" transform="rotate(0)"></polygon></g><g class="center"></g><g class="circle"></g><g class="axes"></g><g class="coordinates"></g><g class="tiles"></g><g class="values"></g></g><g class="tile" style="opacity: 1;" transform="translate(54.800775541957435,65.76093065034893)"><g class="polygon"><polygon points="10.960,-10.960 10.960,10.960 -10.960,10.960 -10.960,-10.960" transform="rotate(0)"></polygon></g><g class="center"></g><g class="circle"></g><g class="axes"></g><g class="coordinates"></g><g class="tiles"></g><g class="values"></g></g><g class="tile" style="opacity: 1;" transform="translate(65.76093065034893,43.84062043356595)"><g class="polygon"><polygon points="10.960,-10.960 10.960,10.960 -10.960,10.960 -10.960,-10.960" transform="rotate(0)"></polygon></g><g class="center"></g><g class="circle"></g><g class="axes"></g><g class="coordinates"></g><g class="tiles"></g><g class="values"></g></g><g class="tile" style="opacity: 1;" transform="translate(76.72108575874041,21.920310216782976)"><g class="polygon"><polygon points="10.960,-10.960 10.960,10.960 -10.960,10.960 -10.960,-10.960" transform="rotate(0)"></polygon></g><g class="center"></g><g class="circle"></g><g class="axes"></g><g class="coordinates"></g><g class="tiles"></g><g class="values"></g></g><g class="tile" style="opacity: 1;" transform="translate(87.6812408671319,0)"><g class="polygon"><polygon points="10.960,-10.960 10.960,10.960 -10.960,10.960 -10.960,-10.960" transform="rotate(0)"></polygon></g><g class="center"></g><g class="circle"></g><g class="axes"></g><g class="coordinates"></g><g class="tiles"></g><g class="values"></g></g><g class="tile" style="opacity: 1;" transform="translate(54.800775541957435,109.60155108391487)"><g class="polygon"><polygon points="10.960,-10.960 10.960,10.960 -10.960,10.960 -10.960,-10.960" transform="rotate(0)"></polygon></g><g class="center"></g><g class="circle"></g><g class="axes"></g><g class="coordinates"></g><g class="tiles"></g><g class="values"></g></g><g class="tile" style="opacity: 1;" transform="translate(65.76093065034893,87.6812408671319)"><g class="polygon"><polygon points="10.960,-10.960 10.960,10.960 -10.960,10.960 -10.960,-10.960" transform="rotate(0)"></polygon></g><g class="center"></g><g class="circle"></g><g class="axes"></g><g class="coordinates"></g><g class="tiles"></g><g class="values"></g></g><g class="tile" style="opacity: 1;" transform="translate(76.72108575874041,65.76093065034893)"><g class="polygon"><polygon points="10.960,-10.960 10.960,10.960 -10.960,10.960 -10.960,-10.960" transform="rotate(0)"></polygon></g><g class="center"></g><g class="circle"></g><g class="axes"></g><g class="coordinates"></g><g class="tiles"></g><g class="values"></g></g><g class="tile" style="opacity: 1;" transform="translate(87.6812408671319,43.84062043356595)"><g class="polygon"><polygon points="10.960,-10.960 10.960,10.960 -10.960,10.960 -10.960,-10.960" transform="rotate(0)"></polygon></g><g class="center"></g><g class="circle"></g><g class="axes"></g><g class="coordinates"></g><g class="tiles"></g><g class="values"></g></g><g class="tile" style="opacity: 1;" transform="translate(98.6413959755234,21.920310216782976)"><g class="polygon"><polygon points="10.960,-10.960 10.960,10.960 -10.960,10.960 -10.960,-10.960" transform="rotate(0)"></polygon></g><g class="center"></g><g class="circle"></g><g class="axes"></g><g class="coordinates"></g><g class="tiles"></g><g class="values"></g></g><g class="tile" style="opacity: 1;" transform="translate(109.60155108391487,0)"><g class="polygon"><polygon points="10.960,-10.960 10.960,10.960 -10.960,10.960 -10.960,-10.960" transform="rotate(0)"></polygon></g><g class="center"></g><g class="circle"></g><g class="axes"></g><g class="coordinates"></g><g class="tiles"></g><g class="values"></g></g><g class="tile" style="opacity: 1;" transform="translate(65.76093065034893,131.52186130069785)"><g class="polygon"><polygon points="10.960,-10.960 10.960,10.960 -10.960,10.960 -10.960,-10.960" transform="rotate(0)"></polygon></g><g class="center"></g><g class="circle"></g><g class="axes"></g><g class="coordinates"></g><g class="tiles"></g><g class="values"></g></g><g class="tile" style="opacity: 1;" transform="translate(76.7210857587404,109.60155108391487)"><g class="polygon"><polygon points="10.960,-10.960 10.960,10.960 -10.960,10.960 -10.960,-10.960" transform="rotate(0)"></polygon></g><g class="center"></g><g class="circle"></g><g class="axes"></g><g class="coordinates"></g><g class="tiles"></g><g class="values"></g></g><g class="tile" style="opacity: 1;" transform="translate(87.6812408671319,87.6812408671319)"><g class="polygon"><polygon points="10.960,-10.960 10.960,10.960 -10.960,10.960 -10.960,-10.960" transform="rotate(0)"></polygon></g><g class="center"></g><g class="circle"></g><g class="axes"></g><g class="coordinates"></g><g class="tiles"></g><g class="values"></g></g><g class="tile" style="opacity: 1;" transform="translate(98.6413959755234,65.76093065034893)"><g class="polygon"><polygon points="10.960,-10.960 10.960,10.960 -10.960,10.960 -10.960,-10.960" transform="rotate(0)"></polygon></g><g class="center"></g><g class="circle"></g><g class="axes"></g><g class="coordinates"></g><g class="tiles"></g><g class="values"></g></g><g class="tile" style="opacity: 1;" transform="translate(109.60155108391487,43.84062043356595)"><g class="polygon"><polygon points="10.960,-10.960 10.960,10.960 -10.960,10.960 -10.960,-10.960" transform="rotate(0)"></polygon></g><g class="center"></g><g class="circle"></g><g class="axes"></g><g class="coordinates"></g><g class="tiles"></g><g class="values"></g></g><g class="tile" style="opacity: 1;" transform="translate(120.56170619230636,21.920310216782976)"><g class="polygon"><polygon points="10.960,-10.960 10.960,10.960 -10.960,10.960 -10.960,-10.960" transform="rotate(0)"></polygon></g><g class="center"></g><g class="circle"></g><g class="axes"></g><g class="coordinates"></g><g class="tiles"></g><g class="values"></g></g><g class="tile" style="opacity: 1;" transform="translate(131.52186130069785,0)"><g class="polygon"><polygon points="10.960,-10.960 10.960,10.960 -10.960,10.960 -10.960,-10.960" transform="rotate(0)"></polygon></g><g class="center"></g><g class="circle"></g><g class="axes"></g><g class="coordinates"></g><g class="tiles"></g><g class="values"></g></g><g class="tile" style="opacity: 1;" transform="translate(76.7210857587404,153.4421715174808)"><g class="polygon"><polygon points="10.960,-10.960 10.960,10.960 -10.960,10.960 -10.960,-10.960" transform="rotate(0)"></polygon></g><g class="center"></g><g class="circle"></g><g class="axes"></g><g class="coordinates"></g><g class="tiles"></g><g class="values"></g></g><g class="tile" style="opacity: 1;" transform="translate(87.6812408671319,131.52186130069785)"><g class="polygon"><polygon points="10.960,-10.960 10.960,10.960 -10.960,10.960 -10.960,-10.960" transform="rotate(0)"></polygon></g><g class="center"></g><g class="circle"></g><g class="axes"></g><g class="coordinates"></g><g class="tiles"></g><g class="values"></g></g><g class="tile" style="opacity: 1;" transform="translate(98.64139597552338,109.60155108391487)"><g class="polygon"><polygon points="10.960,-10.960 10.960,10.960 -10.960,10.960 -10.960,-10.960" transform="rotate(0)"></polygon></g><g class="center"></g><g class="circle"></g><g class="axes"></g><g class="coordinates"></g><g class="tiles"></g><g class="values"></g></g><g class="tile" style="opacity: 1;" transform="translate(109.60155108391487,87.6812408671319)"><g class="polygon"><polygon points="10.960,-10.960 10.960,10.960 -10.960,10.960 -10.960,-10.960" transform="rotate(0)"></polygon></g><g class="center"></g><g class="circle"></g><g class="axes"></g><g class="coordinates"></g><g class="tiles"></g><g class="values"></g></g><g class="tile" style="opacity: 1;" transform="translate(120.56170619230636,65.76093065034893)"><g class="polygon"><polygon points="10.960,-10.960 10.960,10.960 -10.960,10.960 -10.960,-10.960" transform="rotate(0)"></polygon></g><g class="center"></g><g class="circle"></g><g class="axes"></g><g class="coordinates"></g><g class="tiles"></g><g class="values"></g></g><g class="tile" style="opacity: 1;" transform="translate(131.52186130069785,43.84062043356595)"><g class="polygon"><polygon points="10.960,-10.960 10.960,10.960 -10.960,10.960 -10.960,-10.960" transform="rotate(0)"></polygon></g><g class="center"></g><g class="circle"></g><g class="axes"></g><g class="coordinates"></g><g class="tiles"></g><g class="values"></g></g><g class="tile" style="opacity: 1;" transform="translate(142.48201640908934,21.920310216782976)"><g class="polygon"><polygon points="10.960,-10.960 10.960,10.960 -10.960,10.960 -10.960,-10.960" transform="rotate(0)"></polygon></g><g class="center"></g><g class="circle"></g><g class="axes"></g><g class="coordinates"></g><g class="tiles"></g><g class="values"></g></g><g class="tile" style="opacity: 1;" transform="translate(153.4421715174808,0)"><g class="polygon"><polygon points="10.960,-10.960 10.960,10.960 -10.960,10.960 -10.960,-10.960" transform="rotate(0)"></polygon></g><g class="center"></g><g class="circle"></g><g class="axes"></g><g class="coordinates"></g><g class="tiles"></g><g class="values"></g></g><g class="tile" style="opacity: 1;" transform="translate(87.6812408671319,175.3624817342638)"><g class="polygon"><polygon points="10.960,-10.960 10.960,10.960 -10.960,10.960 -10.960,-10.960" transform="rotate(0)"></polygon></g><g class="center"></g><g class="circle"></g><g class="axes"></g><g class="coordinates"></g><g class="tiles"></g><g class="values"></g></g><g class="tile" style="opacity: 1;" transform="translate(98.64139597552338,153.4421715174808)"><g class="polygon"><polygon points="10.960,-10.960 10.960,10.960 -10.960,10.960 -10.960,-10.960" transform="rotate(0)"></polygon></g><g class="center"></g><g class="circle"></g><g class="axes"></g><g class="coordinates"></g><g class="tiles"></g><g class="values"></g></g><g class="tile" style="opacity: 1;" transform="translate(109.60155108391487,131.52186130069785)"><g class="polygon"><polygon points="10.960,-10.960 10.960,10.960 -10.960,10.960 -10.960,-10.960" transform="rotate(0)"></polygon></g><g class="center"></g><g class="circle"></g><g class="axes"></g><g class="coordinates"></g><g class="tiles"></g><g class="values"></g></g><g class="tile" style="opacity: 1;" transform="translate(120.56170619230636,109.60155108391487)"><g class="polygon"><polygon points="10.960,-10.960 10.960,10.960 -10.960,10.960 -10.960,-10.960" transform="rotate(0)"></polygon></g><g class="center"></g><g class="circle"></g><g class="axes"></g><g class="coordinates"></g><g class="tiles"></g><g class="values"></g></g><g class="tile" style="opacity: 1;" transform="translate(131.52186130069785,87.6812408671319)"><g class="polygon"><polygon points="10.960,-10.960 10.960,10.960 -10.960,10.960 -10.960,-10.960" transform="rotate(0)"></polygon></g><g class="center"></g><g class="circle"></g><g class="axes"></g><g class="coordinates"></g><g class="tiles"></g><g class="values"></g></g><g class="tile" style="opacity: 1;" transform="translate(142.4820164090893,65.76093065034893)"><g class="polygon"><polygon points="10.960,-10.960 10.960,10.960 -10.960,10.960 -10.960,-10.960" transform="rotate(0)"></polygon></g><g class="center"></g><g class="circle"></g><g class="axes"></g><g class="coordinates"></g><g class="tiles"></g><g class="values"></g></g><g class="tile" style="opacity: 1;" transform="translate(153.44217151748083,43.84062043356595)"><g class="polygon"><polygon points="10.960,-10.960 10.960,10.960 -10.960,10.960 -10.960,-10.960" transform="rotate(0)"></polygon></g><g class="center"></g><g class="circle"></g><g class="axes"></g><g class="coordinates"></g><g class="tiles"></g><g class="values"></g></g><g class="tile" style="opacity: 1;" transform="translate(164.40232662587232,21.920310216782976)"><g class="polygon"><polygon points="10.960,-10.960 10.960,10.960 -10.960,10.960 -10.960,-10.960" transform="rotate(0)"></polygon></g><g class="center"></g><g class="circle"></g><g class="axes"></g><g class="coordinates"></g><g class="tiles"></g><g class="values"></g></g><g class="tile" style="opacity: 1;" transform="translate(175.3624817342638,0)"><g class="polygon"><polygon points="10.960,-10.960 10.960,10.960 -10.960,10.960 -10.960,-10.960" transform="rotate(0)"></polygon></g><g class="center"></g><g class="circle"></g><g class="axes"></g><g class="coordinates"></g><g class="tiles"></g><g class="values"></g></g></g><g transform="translate(27.318759132868095,27.318759132868095)"><path d="M 87.6812408671319,87.6812408671319 L 76.7210857587404,109.60155108391487 L 98.64139597552338,109.60155108391487 L 109.60155108391487,87.6812408671319 L 98.6413959755234,65.76093065034893 L 76.72108575874041,65.76093065034893 L 65.76093065034893,87.6812408671319 L 65.76093065034893,131.52186130069785 L 87.6812408671319,131.52186130069785 L 109.60155108391487,131.52186130069785 L 120.56170619230636,109.60155108391487 L 131.52186130069785,87.6812408671319 L 120.56170619230636,65.76093065034893 L 109.60155108391487,43.84062043356595 L 87.6812408671319,43.84062043356595 L 65.76093065034893,43.84062043356595 L 54.800775541957435,65.76093065034893 L 43.84062043356595,87.6812408671319 L 54.800775541957435,109.60155108391487" class="path" style="stroke: undefined; stroke-width: 3px;"></path></g></svg>