<svg version="1.1" xmlns="http://www.w3.org/2000/svg" width="100" height="100"><style>text {
  font-size: 14px;
  text-anchor: middle;
  font-family: Arial, Helvetica, sans-serif;
}

.tile polygon {
  fill: hsl(60, 10%, 95%);
  stroke: hsl(0, 0%, 70%);
  stroke-width: 0.5;
}

.path {
  fill: none;
  stroke: hsl(60, 20%, 15%);
  stroke-width: 12px;
  stroke-opacity: 0.4;
  stroke-linecap: round;
  stroke-linejoin: round;
}

.q {
  fill: hsl(90, 100%, 35%);
}

.r {
  fill: hsl(200, 100%, 45%);
}

.s {
  fill: hsl(300, 80%, 50%);
}

.highlight polygon {
  fill: hsl(200, 50%, 80%);
}

.highlight-dark polygon {
  fill: hsl(200, 10%, 35%);
}

.marker {
  fill: #308dde;
}

.center {
  fill: hsl(160, 85%, 75%);
}

.circle {
  fill: hsla(240, 5%, 75%, 0.12);
  stroke: hsl(0, 0%, 70%);
  stroke-width: 0.5;
  stroke-opacity: 0.95;
}
</style><g transform="translate(50,50)"><g class="tile" style="opacity: 1;" transform="translate(-31.5,18.186533479473212)"><g class="polygon"><polygon points="7.000,0.000 3.500,6.062 -3.500,6.062 -7.000,0.000 -3.500,-6.062 3.500,-6.062" transform="rotate(0)"></polygon></g><g class="center"></g><g class="circle"></g><g class="axes"></g><g class="coordinates"></g><g class="tiles"></g><g class="values"></g></g><g class="tile" style="opacity: 1;" transform="translate(-31.5,6.062177826491069)"><g class="polygon"><polygon points="7.000,0.000 3.500,6.062 -3.500,6.062 -7.000,0.000 -3.500,-6.062 3.500,-6.062" transform="rotate(0)"></polygon></g><g class="center"></g><g class="circle"></g><g class="axes"></g><g class="coordinates"></g><g class="tiles"></g><g class="values"></g></g><g class="tile" style="opacity: 1;" transform="translate(-31.5,-6.062177826491071)"><g class="polygon"><polygon points="7.000,0.000 3.500,6.062 -3.500,6.062 -7.000,0.000 -3.500,-6.062 3.500,-6.062" transform="rotate(0)"></polygon></g><g class="center"></g><g class="circle"></g><g class="axes"></g><g class="coordinates"></g><g class="tiles"></g><g class="values"></g></g><g class="tile" style="opacity: 1;" transform="translate(-31.5,-18.186533479473212)"><g class="polygon"><polygon points="7.000,0.000 3.500,6.062 -3.500,6.062 -7.000,0.000 -3.500,-6.062 3.500,-6.062" transform="rotate(0)"></polygon></g><g class="center"></g><g class="circle"></g><g class="axes"></g><g class="coordinates"></g><g class="tiles"></g><g class="values"></g></g><g class="tile" style="opacity: 1;" transform="translate(-21,24.248711305964285)"><g class="polygon"><polygon points="7.000,0.000 3.500,6.062 -3.500,6.062 -7.000,0.000 -3.500,-6.062 3.500,-6.062" transform="rotate(0)"></polygon></g><g class="center"></g><g class="circle"></g><g class="axes"></g><g class="coordinates"></g><g class="tiles"></g><g class="values"></g></g><g class="tile" style="opacity: 1;" transform="translate(-21,12.12435565298214)"><g class="polygon"><polygon points="7.000,0.000 3.500,6.062 -3.500,6.062 -7.000,0.000 -3.500,-6.062 3.500,-6.062" transform="rotate(0)"></polygon></g><g class="center"></g><g class="circle"></g><g class="axes"></g><g class="coordinates"></g><g class="tiles"></g><g class="values"></g></g><g class="tile" style="opacity: 1;" transform="translate(-21,0)"><g class="polygon"><polygon points="7.000,0.000 3.500,6.062 -3.500,6.062 -7.000,0.000 -3.500,-6.062 3.500,-6.062" transform="rotate(0)"></polygon></g><g class="center"></g><g class="circle"></g><g class="axes"></g><g class="coordinates"></g><g class="tiles"></g><g class="values"></g></g><g class="tile" style="opacity: 1;" transform="translate(-21,-12.12435565298214)"><g class="polygon"><polygon points="7.000,0.000 3.500,6.062 -3.500,6.062 -7.000,0.000 -3.500,-6.062 3.500,-6.062" transform="rotate(0)"></polygon></g><g class="center"></g><g class="circle"></g><g class="axes"></g><g class="coordinates"></g><g class="tiles"></g><g class="values"></g></g><g class="tile" style="opacity: 1;" transform="translate(-21,-24.24871130596428)"><g class="polygon"><polygon points="7.000,0.000 3.500,6.062 -3.500,6.062 -7.000,0.000 -3.500,-6.062 3.500,-6.062" transform="rotate(0)"></polygon></g><g class="center"></g><g class="circle"></g><g class="axes"></g><g class="coordinates"></g><g class="tiles"></g><g class="values"></g></g><g class="tile" style="opacity: 1;" transform="translate(-10.5,30.310889132455355)"><g class="polygon"><polygon points="7.000,0.000 3.500,6.062 -3.500,6.062 -7.000,0.000 -3.500,-6.062 3.500,-6.062" transform="rotate(0)"></polygon></g><g class="center"></g><g class="circle"></g><g class="axes"></g><g class="coordinates"></g><g class="tiles"></g><g class="values"></g></g><g class="tile" style="opacity: 1;" transform="translate(-10.5,18.186533479473212)"><g class="polygon"><polygon points="7.000,0.000 3.500,6.062 -3.500,6.062 -7.000,0.000 -3.500,-6.062 3.500,-6.062" transform="rotate(0)"></polygon></g><g class="center"></g><g class="circle"></g><g class="axes"></g><g class="coordinates"></g><g class="tiles"></g><g class="values"></g></g><g class="tile" style="opacity: 1;" transform="translate(-10.5,6.06217782649107)"><g class="polygon"><polygon points="7.000,0.000 3.500,6.062 -3.500,6.062 -7.000,0.000 -3.500,-6.062 3.500,-6.062" transform="rotate(0)"></polygon></g><g class="center"></g><g class="circle"></g><g class="axes"></g><g class="coordinates"></g><g class="tiles"></g><g class="values"></g></g><g class="tile" style="opacity: 1;" transform="translate(-10.5,-6.06217782649107)"><g class="polygon"><polygon points="7.000,0.000 3.500,6.062 -3.500,6.062 -7.000,0.000 -3.500,-6.062 3.500,-6.062" transform="rotate(0)"></polygon></g><g class="center"></g><g class="circle"></g><g class="axes"></g><g class="coordinates"></g><g class="tiles"></g><g class="values"></g></g><g class="tile" style="opacity: 1;" transform="translate(-10.5,-18.186533479473212)"><g class="polygon"><polygon points="7.000,0.000 3.500,6.062 -3.500,6.062 -7.000,0.000 -3.500,-6.062 3.500,-6.062" transform="rotate(0)"></polygon></g><g class="center"></g><g class="circle"></g><g class="axes"></g><g class="coordinates"></g><g class="tiles"></g><g class="values"></g></g><g class="tile" style="opacity: 1;" transform="translate(-10.5,-30.31088913245535)"><g class="polygon"><polygon points="7.000,0.000 3.500,6.062 -3.500,6.062 -7.000,0.000 -3.500,-6.062 3.500,-6.062" transform="rotate(0)"></polygon></g><g class="center"></g><g class="circle"></g><g class="axes"></g><g class="coordinates"></g><g class="tiles"></g><g class="values"></g></g><g class="tile" style="opacity: 1;" transform="translate(0,36.373066958946424)"><g class="polygon"><polygon points="7.000,0.000 3.500,6.062 -3.500,6.062 -7.000,0.000 -3.500,-6.062 3.500,-6.062" transform="rotate(0)"></polygon></g><g class="center"></g><g class="circle"></g><g class="axes"></g><g class="coordinates"></g><g class="tiles"></g><g class="values"></g></g><g class="tile" style="opacity: 1;" transform="translate(0,24.24871130596428)"><g class="polygon"><polygon points="7.000,0.000 3.500,6.062 -3.500,6.062 -7.000,0.000 -3.500,-6.062 3.500,-6.062" transform="rotate(0)"></polygon></g><g class="center"></g><g class="circle"></g><g class="axes"></g><g class="coordinates"></g><g class="tiles"></g><g class="values"></g></g><g class="tile" style="opacity: 1;" transform="translate(0,12.12435565298214)"><g class="polygon"><polygon points="7.000,0.000 3.500,6.062 -3.500,6.062 -7.000,0.000 -3.500,-6.062 3.500,-6.062" transform="rotate(0)"></polygon></g><g class="center"></g><g class="circle"></g><g class="axes"></g><g class="coordinates"></g><g class="tiles"></g><g class="values"></g></g><g class="tile" style="opacity: 1;" transform="translate(0,0)"><g class="polygon"><polygon points="7.000,0.000 3.500,6.062 -3.500,6.062 -7.000,0.000 -3.500,-6.062 3.500,-6.062" transform="rotate(0)"></polygon></g><g class="center"></g><g class="circle"></g><g class="axes"></g><g class="coordinates"></g><g class="tiles"></g><g class="values"></g></g><g class="tile" style="opacity: 1;" transform="translate(0,-12.12435565298214)"><g class="polygon"><polygon points="7.000,0.000 3.500,6.062 -3.500,6.062 -7.000,0.000 -3.500,-6.062 3.500,-6.062" transform="rotate(0)"></polygon></g><g class="center"></g><g class="circle"></g><g class="axes"></g><g class="coordinates"></g><g class="tiles"></g><g class="values"></g></g><g class="tile" style="opacity: 1;" transform="translate(0,-24.24871130596428)"><g class="polygon"><polygon points="7.000,0.000 3.500,6.062 -3.500,6.062 -7.000,0.000 -3.500,-6.062 3.500,-6.062" transform="rotate(0)"></polygon></g><g class="center"></g><g class="circle"></g><g class="axes"></g><g class="coordinates"></g><g class="tiles"></g><g class="values"></g></g><g class="tile" style="opacity: 1;" transform="translate(0,-36.373066958946424)"><g class="polygon"><polygon points="7.000,0.000 3.500,6.062 -3.500,6.062 -7.000,0.000 -3.500,-6.062 3.500,-6.062" transform="rotate(0)"></polygon></g><g class="center"></g><g class="circle"></g><g class="axes"></g><g class="coordinates"></g><g class="tiles"></g><g class="values"></g></g><g class="tile" style="opacity: 1;" transform="translate(10.5,30.31088913245535)"><g class="polygon"><polygon points="7.000,0.000 3.500,6.062 -3.500,6.062 -7.000,0.000 -3.500,-6.062 3.500,-6.062" transform="rotate(0)"></polygon></g><g class="center"></g><g class="circle"></g><g class="axes"></g><g class="coordinates"></g><g class="tiles"></g><g class="values"></g></g><g class="tile" style="opacity: 1;" transform="translate(10.5,18.186533479473212)"><g class="polygon"><polygon points="7.000,0.000 3.500,6.062 -3.500,6.062 -7.000,0.000 -3.500,-6.062 3.500,-6.062" transform="rotate(0)"></polygon></g><g class="center"></g><g class="circle"></g><g class="axes"></g><g class="coordinates"></g><g class="tiles"></g><g class="values"></g></g><g class="tile" style="opacity: 1;" transform="translate(10.5,6.06217782649107)"><g class="polygon"><polygon points="7.000,0.000 3.500,6.062 -3.500,6.062 -7.000,0.000 -3.500,-6.062 3.500,-6.062" transform="rotate(0)"></polygon></g><g class="center"></g><g class="circle"></g><g class="axes"></g><g class="coordinates"></g><g class="tiles"></g><g class="values"></g></g><g class="tile" style="opacity: 1;" transform="translate(10.5,-6.06217782649107)"><g class="polygon"><polygon points="7.000,0.000 3.500,6.062 -3.500,6.062 -7.000,0.000 -3.500,-6.062 3.500,-6.062" transform="rotate(0)"></polygon></g><g class="center"></g><g class="circle"></g><g class="axes"></g><g class="coordinates"></g><g class="tiles"></g><g class="values"></g></g><g class="tile" style="opacity: 1;" transform="translate(10.5,-18.186533479473212)"><g class="polygon"><polygon points="7.000,0.000 3.500,6.062 -3.500,6.062 -7.000,0.000 -3.500,-6.062 3.500,-6.062" transform="rotate(0)"></polygon></g><g class="center"></g><g class="circle"></g><g class="axes"></g><g class="coordinates"></g><g class="tiles"></g><g class="values"></g></g><g class="tile" style="opacity: 1;" transform="translate(10.5,-30.310889132455355)"><g class="polygon"><polygon points="7.000,0.000 3.500,6.062 -3.500,6.062 -7.000,0.000 -3.500,-6.062 3.500,-6.062" transform="rotate(0)"></polygon></g><g class="center"></g><g class="circle"></g><g class="axes"></g><g class="coordinates"></g><g class="tiles"></g><g class="values"></g></g><g class="tile" style="opacity: 1;" transform="translate(21,24.24871130596428)"><g class="polygon"><polygon points="7.000,0.000 3.500,6.062 -3.500,6.062 -7.000,0.000 -3.500,-6.062 3.500,-6.062" transform="rotate(0)"></polygon></g><g class="center"></g><g class="circle"></g><g class="axes"></g><g class="coordinates"></g><g class="tiles"></g><g class="values"></g></g><g class="tile" style="opacity: 1;" transform="translate(21,12.12435565298214)"><g class="polygon"><polygon points="7.000,0.000 3.500,6.062 -3.500,6.062 -7.000,0.000 -3.500,-6.062 3.500,-6.062" transform="rotate(0)"></polygon></g><g class="center"></g><g class="circle"></g><g class="axes"></g><g class="coordinates"></g><g class="tiles"></g><g class="values"></g></g><g class="tile" style="opacity: 1;" transform="translate(21,0)"><g class="polygon"><polygon points="7.000,0.000 3.500,6.062 -3.500,6.062 -7.000,0.000 -3.500,-6.062 3.500,-6.062" transform="rotate(0)"></polygon></g><g class="center"></g><g class="circle"></g><g class="axes"></g><g class="coordinates"></g><g class="tiles"></g><g class="values"></g></g><g class="tile" style="opacity: 1;" transform="translate(21,-12.12435565298214)"><g class="polygon"><polygon points="7.000,0.000 3.500,6.062 -3.500,6.062 -7.000,0.000 -3.500,-6.062 3.500,-6.062" transform="rotate(0)"></polygon></g><g class="center"></g><g class="circle"></g><g class="axes"></g><g class="coordinates"></g><g class="tiles"></g><g class="values"></g></g><g class="tile" style="opacity: 1;" transform="translate(21,-24.248711305964285)"><g class="polygon"><polygon points="7.000,0.000 3.500,6.062 -3.500,6.062 -7.000,0.000 -3.500,-6.062 3.500,-6.062" transform="rotate(0)"></polygon></g><g class="center"></g><g class="circle"></g><g class="axes"></g><g class="coordinates"></g><g class="tiles"></g><g class="values"></g></g><g class="tile" style="opacity: 1;" transform="translate(31.5,18.186533479473212)"><g class="polygon"><polygon points="7.000,0.000 3.500,6.062 -3.500,6.062 -7.000,0.000 -3.500,-6.062 3.500,-6.062" transform="rotate(0)"></polygon></g><g class="center"></g><g class="circle"></g><g class="axes"></g><g class="coordinates"></g><g class="tiles"></g><g class="values"></g></g><g class="tile" style="opacity: 1;" transform="translate(31.5,6.062177826491071)"><g class="polygon"><polygon points="7.000,0.000 3.500,6.062 -3.500,6.062 -7.000,0.000 -3.500,-6.062 3.500,-6.062" transform="rotate(0)"></polygon></g><g class="center"></g><g class="circle"></g><g class="axes"></g><g class="coordinates"></g><g class="tiles"></g><g class="values"></g></g><g class="tile" style="opacity: 1;" transform="translate(31.5,-6.062177826491069)"><g class="polygon"><polygon points="7.000,0.000 3.500,6.062 -3.500,6.062 -7.000,0.000 -3.500,-6.062 3.500,-6.062" transform="rotate(0)"></polygon></g><g class="center"></g><g class="circle"></g><g class="axes"></g><g class="coordinates"></g><g class="tiles"></g><g class="values"></g></g><g class="tile" style="opacity: 1;" transform="translate(31.5,-18.186533479473212)"><g class="polygon"><polygon points="7.000,0.000 3.500,6.062 -3.500,6.062 -7.000,0.000 -3.500,-6.062 3.500,-6.062" transform="rotate(0)"></polygon></g><g class="center"></g><g class="circle"></g><g class="axes"></g><g class="coordinates"></g><g class="tiles"></g><g class="values"></g></g></g><g transform="translate(50,50)"></g></svg>