<svg version="1.1" xmlns="http://www.w3.org/2000/svg" width="100" height="100"><style>text {
  font-size: 14px;
  text-anchor: middle;
  font-family: Arial, Helvetica, sans-serif;
}

.tile polygon {
  fill: hsl(60, 10%, 95%);
  stroke: hsl(0, 0%, 70%);
  stroke-width: 0.5;
}

.tile .paths path {
  fill: rgba(255,0,0,0.2);
  stroke: rgba(255,0,255,0.2);
  stroke-width: 0.5;
}

.path {
  fill: none;
  stroke: hsl(60, 20%, 15%);
  stroke-width: 12px;
  stroke-opacity: 0.4;
  stroke-linecap: round;
  stroke-linejoin: round;
}

.q {
  fill: hsl(90, 100%, 35%);
}

.r {
  fill: hsl(200, 100%, 45%);
}

.s {
  fill: hsl(300, 80%, 50%);
}

.highlight polygon {
  fill: hsl(200, 50%, 80%);
}

.highlight-dark polygon {
  fill: hsl(200, 10%, 35%);
}

.marker {
  fill: #308dde;
}

.center {
  fill: hsl(160, 85%, 75%);
}

.circle {
  fill: hsla(240, 5%, 75%, 0.12);
  stroke: hsl(0, 0%, 70%);
  stroke-width: 0.5;
  stroke-opacity: 0.95;
}
</style><g transform="translate(50.00000000000001,50)"><g class="tile" style="opacity: 1;" transform="translate(-36.373066958946424,-21)"><g class="polygon"><polygon points="8.083,0.000 4.041,7.000 -4.041,7.000 -8.083,0.000 -4.041,-7.000 4.041,-7.000" transform="rotate(0)"></polygon></g><g class="paths"><path d="M 0 0" transform="rotate(0)"></path></g><g class="center"></g><g class="circle"></g><g class="axes"></g><g class="coordinates"></g><g class="tiles"></g><g class="values"></g></g><g class="tile" style="opacity: 1;" transform="translate(-36.373066958946424,-6.999999999999998)"><g class="polygon"><polygon points="8.083,0.000 4.041,7.000 -4.041,7.000 -8.083,0.000 -4.041,-7.000 4.041,-7.000" transform="rotate(0)"></polygon></g><g class="paths"><path d="M 0 0" transform="rotate(0)"></path></g><g class="center"></g><g class="circle"></g><g class="axes"></g><g class="coordinates"></g><g class="tiles"></g><g class="values"></g></g><g class="tile" style="opacity: 1;" transform="translate(-36.373066958946424,7.000000000000002)"><g class="polygon"><polygon points="8.083,0.000 4.041,7.000 -4.041,7.000 -8.083,0.000 -4.041,-7.000 4.041,-7.000" transform="rotate(0)"></polygon></g><g class="paths"><path d="M 0 0" transform="rotate(0)"></path></g><g class="center"></g><g class="circle"></g><g class="axes"></g><g class="coordinates"></g><g class="tiles"></g><g class="values"></g></g><g class="tile" style="opacity: 1;" transform="translate(-36.373066958946424,21)"><g class="polygon"><polygon points="8.083,0.000 4.041,7.000 -4.041,7.000 -8.083,0.000 -4.041,-7.000 4.041,-7.000" transform="rotate(0)"></polygon></g><g class="paths"><path d="M 0 0" transform="rotate(0)"></path></g><g class="center"></g><g class="circle"></g><g class="axes"></g><g class="coordinates"></g><g class="tiles"></g><g class="values"></g></g><g class="tile" style="opacity: 1;" transform="translate(-24.248711305964285,-28.000000000000004)"><g class="polygon"><polygon points="8.083,0.000 4.041,7.000 -4.041,7.000 -8.083,0.000 -4.041,-7.000 4.041,-7.000" transform="rotate(0)"></polygon></g><g class="paths"><path d="M 0 0" transform="rotate(0)"></path></g><g class="center"></g><g class="circle"></g><g class="axes"></g><g class="coordinates"></g><g class="tiles"></g><g class="values"></g></g><g class="tile" style="opacity: 1;" transform="translate(-24.248711305964285,-14)"><g class="polygon"><polygon points="8.083,0.000 4.041,7.000 -4.041,7.000 -8.083,0.000 -4.041,-7.000 4.041,-7.000" transform="rotate(0)"></polygon></g><g class="paths"><path d="M 0 0" transform="rotate(0)"></path></g><g class="center"></g><g class="circle"></g><g class="axes"></g><g class="coordinates"></g><g class="tiles"></g><g class="values"></g></g><g class="tile" style="opacity: 1;" transform="translate(-24.248711305964285,0)"><g class="polygon"><polygon points="8.083,0.000 4.041,7.000 -4.041,7.000 -8.083,0.000 -4.041,-7.000 4.041,-7.000" transform="rotate(0)"></polygon></g><g class="paths"><path d="M 0 0" transform="rotate(0)"></path></g><g class="center"></g><g class="circle"></g><g class="axes"></g><g class="coordinates"></g><g class="tiles"></g><g class="values"></g></g><g class="tile" style="opacity: 1;" transform="translate(-24.248711305964285,14)"><g class="polygon"><polygon points="8.083,0.000 4.041,7.000 -4.041,7.000 -8.083,0.000 -4.041,-7.000 4.041,-7.000" transform="rotate(0)"></polygon></g><g class="paths"><path d="M 0 0" transform="rotate(0)"></path></g><g class="center"></g><g class="circle"></g><g class="axes"></g><g class="coordinates"></g><g class="tiles"></g><g class="values"></g></g><g class="tile" style="opacity: 1;" transform="translate(-24.248711305964285,28)"><g class="polygon"><polygon points="8.083,0.000 4.041,7.000 -4.041,7.000 -8.083,0.000 -4.041,-7.000 4.041,-7.000" transform="rotate(0)"></polygon></g><g class="paths"><path d="M 0 0" transform="rotate(0)"></path></g><g class="center"></g><g class="circle"></g><g class="axes"></g><g class="coordinates"></g><g class="tiles"></g><g class="values"></g></g><g class="tile" style="opacity: 1;" transform="translate(-12.124355652982143,-35.00000000000001)"><g class="polygon"><polygon points="8.083,0.000 4.041,7.000 -4.041,7.000 -8.083,0.000 -4.041,-7.000 4.041,-7.000" transform="rotate(0)"></polygon></g><g class="paths"><path d="M 0 0" transform="rotate(0)"></path></g><g class="center"></g><g class="circle"></g><g class="axes"></g><g class="coordinates"></g><g class="tiles"></g><g class="values"></g></g><g class="tile" style="opacity: 1;" transform="translate(-12.124355652982143,-21)"><g class="polygon"><polygon points="8.083,0.000 4.041,7.000 -4.041,7.000 -8.083,0.000 -4.041,-7.000 4.041,-7.000" transform="rotate(0)"></polygon></g><g class="paths"><path d="M 0 0" transform="rotate(0)"></path></g><g class="center"></g><g class="circle"></g><g class="axes"></g><g class="coordinates"></g><g class="tiles"></g><g class="values"></g></g><g class="tile" style="opacity: 1;" transform="translate(-12.124355652982143,-7)"><g class="polygon"><polygon points="8.083,0.000 4.041,7.000 -4.041,7.000 -8.083,0.000 -4.041,-7.000 4.041,-7.000" transform="rotate(0)"></polygon></g><g class="paths"><path d="M 0 0" transform="rotate(0)"></path></g><g class="center"></g><g class="circle"></g><g class="axes"></g><g class="coordinates"></g><g class="tiles"></g><g class="values"></g></g><g class="tile" style="opacity: 1;" transform="translate(-12.124355652982143,7)"><g class="polygon"><polygon points="8.083,0.000 4.041,7.000 -4.041,7.000 -8.083,0.000 -4.041,-7.000 4.041,-7.000" transform="rotate(0)"></polygon></g><g class="paths"><path d="M 0 0" transform="rotate(0)"></path></g><g class="center"></g><g class="circle"></g><g class="axes"></g><g class="coordinates"></g><g class="tiles"></g><g class="values"></g></g><g class="tile" style="opacity: 1;" transform="translate(-12.124355652982143,21)"><g class="polygon"><polygon points="8.083,0.000 4.041,7.000 -4.041,7.000 -8.083,0.000 -4.041,-7.000 4.041,-7.000" transform="rotate(0)"></polygon></g><g class="paths"><path d="M 0 0" transform="rotate(0)"></path></g><g class="center"></g><g class="circle"></g><g class="axes"></g><g class="coordinates"></g><g class="tiles"></g><g class="values"></g></g><g class="tile" style="opacity: 1;" transform="translate(-12.124355652982143,35)"><g class="polygon"><polygon points="8.083,0.000 4.041,7.000 -4.041,7.000 -8.083,0.000 -4.041,-7.000 4.041,-7.000" transform="rotate(0)"></polygon></g><g class="paths"><path d="M 0 0" transform="rotate(0)"></path></g><g class="center"></g><g class="circle"></g><g class="axes"></g><g class="coordinates"></g><g class="tiles"></g><g class="values"></g></g><g class="tile" style="opacity: 1;" transform="translate(0,-42)"><g class="polygon"><polygon points="8.083,0.000 4.041,7.000 -4.041,7.000 -8.083,0.000 -4.041,-7.000 4.041,-7.000" transform="rotate(0)"></polygon></g><g class="paths"><path d="M 0 0" transform="rotate(0)"></path></g><g class="center"></g><g class="circle"></g><g class="axes"></g><g class="coordinates"></g><g class="tiles"></g><g class="values"></g></g><g class="tile" style="opacity: 1;" transform="translate(0,-28)"><g class="polygon"><polygon points="8.083,0.000 4.041,7.000 -4.041,7.000 -8.083,0.000 -4.041,-7.000 4.041,-7.000" transform="rotate(0)"></polygon></g><g class="paths"><path d="M 0 0" transform="rotate(0)"></path></g><g class="center"></g><g class="circle"></g><g class="axes"></g><g class="coordinates"></g><g class="tiles"></g><g class="values"></g></g><g class="tile" style="opacity: 1;" transform="translate(0,-14)"><g class="polygon"><polygon points="8.083,0.000 4.041,7.000 -4.041,7.000 -8.083,0.000 -4.041,-7.000 4.041,-7.000" transform="rotate(0)"></polygon></g><g class="paths"><path d="M 0 0" transform="rotate(0)"></path></g><g class="center"></g><g class="circle"></g><g class="axes"></g><g class="coordinates"></g><g class="tiles"></g><g class="values"></g></g><g class="tile" style="opacity: 1;" transform="translate(0,0)"><g class="polygon"><polygon points="8.083,0.000 4.041,7.000 -4.041,7.000 -8.083,0.000 -4.041,-7.000 4.041,-7.000" transform="rotate(0)"></polygon></g><g class="paths"><path d="M 0 0" transform="rotate(0)"></path></g><g class="center"></g><g class="circle"></g><g class="axes"></g><g class="coordinates"></g><g class="tiles"></g><g class="values"></g></g><g class="tile" style="opacity: 1;" transform="translate(0,14)"><g class="polygon"><polygon points="8.083,0.000 4.041,7.000 -4.041,7.000 -8.083,0.000 -4.041,-7.000 4.041,-7.000" transform="rotate(0)"></polygon></g><g class="paths"><path d="M 0 0" transform="rotate(0)"></path></g><g class="center"></g><g class="circle"></g><g class="axes"></g><g class="coordinates"></g><g class="tiles"></g><g class="values"></g></g><g class="tile" style="opacity: 1;" transform="translate(0,28)"><g class="polygon"><polygon points="8.083,0.000 4.041,7.000 -4.041,7.000 -8.083,0.000 -4.041,-7.000 4.041,-7.000" transform="rotate(0)"></polygon></g><g class="paths"><path d="M 0 0" transform="rotate(0)"></path></g><g class="center"></g><g class="circle"></g><g class="axes"></g><g class="coordinates"></g><g class="tiles"></g><g class="values"></g></g><g class="tile" style="opacity: 1;" transform="translate(0,42)"><g class="polygon"><polygon points="8.083,0.000 4.041,7.000 -4.041,7.000 -8.083,0.000 -4.041,-7.000 4.041,-7.000" transform="rotate(0)"></polygon></g><g class="paths"><path d="M 0 0" transform="rotate(0)"></path></g><g class="center"></g><g class="circle"></g><g class="axes"></g><g class="coordinates"></g><g class="tiles"></g><g class="values"></g></g><g class="tile" style="opacity: 1;" transform="translate(12.124355652982143,-35)"><g class="polygon"><polygon points="8.083,0.000 4.041,7.000 -4.041,7.000 -8.083,0.000 -4.041,-7.000 4.041,-7.000" transform="rotate(0)"></polygon></g><g class="paths"><path d="M 0 0" transform="rotate(0)"></path></g><g class="center"></g><g class="circle"></g><g class="axes"></g><g class="coordinates"></g><g class="tiles"></g><g class="values"></g></g><g class="tile" style="opacity: 1;" transform="translate(12.124355652982143,-21)"><g class="polygon"><polygon points="8.083,0.000 4.041,7.000 -4.041,7.000 -8.083,0.000 -4.041,-7.000 4.041,-7.000" transform="rotate(0)"></polygon></g><g class="paths"><path d="M 0 0" transform="rotate(0)"></path></g><g class="center"></g><g class="circle"></g><g class="axes"></g><g class="coordinates"></g><g class="tiles"></g><g class="values"></g></g><g class="tile" style="opacity: 1;" transform="translate(12.124355652982143,-7)"><g class="polygon"><polygon points="8.083,0.000 4.041,7.000 -4.041,7.000 -8.083,0.000 -4.041,-7.000 4.041,-7.000" transform="rotate(0)"></polygon></g><g class="paths"><path d="M 0 0" transform="rotate(0)"></path></g><g class="center"></g><g class="circle"></g><g class="axes"></g><g class="coordinates"></g><g class="tiles"></g><g class="values"></g></g><g class="tile" style="opacity: 1;" transform="translate(12.124355652982143,7)"><g class="polygon"><polygon points="8.083,0.000 4.041,7.000 -4.041,7.000 -8.083,0.000 -4.041,-7.000 4.041,-7.000" transform="rotate(0)"></polygon></g><g class="paths"><path d="M 0 0" transform="rotate(0)"></path></g><g class="center"></g><g class="circle"></g><g class="axes"></g><g class="coordinates"></g><g class="tiles"></g><g class="values"></g></g><g class="tile" style="opacity: 1;" transform="translate(12.124355652982143,21)"><g class="polygon"><polygon points="8.083,0.000 4.041,7.000 -4.041,7.000 -8.083,0.000 -4.041,-7.000 4.041,-7.000" transform="rotate(0)"></polygon></g><g class="paths"><path d="M 0 0" transform="rotate(0)"></path></g><g class="center"></g><g class="circle"></g><g class="axes"></g><g class="coordinates"></g><g class="tiles"></g><g class="values"></g></g><g class="tile" style="opacity: 1;" transform="translate(12.124355652982143,35.00000000000001)"><g class="polygon"><polygon points="8.083,0.000 4.041,7.000 -4.041,7.000 -8.083,0.000 -4.041,-7.000 4.041,-7.000" transform="rotate(0)"></polygon></g><g class="paths"><path d="M 0 0" transform="rotate(0)"></path></g><g class="center"></g><g class="circle"></g><g class="axes"></g><g class="coordinates"></g><g class="tiles"></g><g class="values"></g></g><g class="tile" style="opacity: 1;" transform="translate(24.248711305964285,-28)"><g class="polygon"><polygon points="8.083,0.000 4.041,7.000 -4.041,7.000 -8.083,0.000 -4.041,-7.000 4.041,-7.000" transform="rotate(0)"></polygon></g><g class="paths"><path d="M 0 0" transform="rotate(0)"></path></g><g class="center"></g><g class="circle"></g><g class="axes"></g><g class="coordinates"></g><g class="tiles"></g><g class="values"></g></g><g class="tile" style="opacity: 1;" transform="translate(24.248711305964285,-14)"><g class="polygon"><polygon points="8.083,0.000 4.041,7.000 -4.041,7.000 -8.083,0.000 -4.041,-7.000 4.041,-7.000" transform="rotate(0)"></polygon></g><g class="paths"><path d="M 0 0" transform="rotate(0)"></path></g><g class="center"></g><g class="circle"></g><g class="axes"></g><g class="coordinates"></g><g class="tiles"></g><g class="values"></g></g><g class="tile" style="opacity: 1;" transform="translate(24.248711305964285,0)"><g class="polygon"><polygon points="8.083,0.000 4.041,7.000 -4.041,7.000 -8.083,0.000 -4.041,-7.000 4.041,-7.000" transform="rotate(0)"></polygon></g><g class="paths"><path d="M 0 0" transform="rotate(0)"></path></g><g class="center"></g><g class="circle"></g><g class="axes"></g><g class="coordinates"></g><g class="tiles"></g><g class="values"></g></g><g class="tile" style="opacity: 1;" transform="translate(24.248711305964285,14)"><g class="polygon"><polygon points="8.083,0.000 4.041,7.000 -4.041,7.000 -8.083,0.000 -4.041,-7.000 4.041,-7.000" transform="rotate(0)"></polygon></g><g class="paths"><path d="M 0 0" transform="rotate(0)"></path></g><g class="center"></g><g class="circle"></g><g class="axes"></g><g class="coordinates"></g><g class="tiles"></g><g class="values"></g></g><g class="tile" style="opacity: 1;" transform="translate(24.248711305964285,28.000000000000004)"><g class="polygon"><polygon points="8.083,0.000 4.041,7.000 -4.041,7.000 -8.083,0.000 -4.041,-7.000 4.041,-7.000" transform="rotate(0)"></polygon></g><g class="paths"><path d="M 0 0" transform="rotate(0)"></path></g><g class="center"></g><g class="circle"></g><g class="axes"></g><g class="coordinates"></g><g class="tiles"></g><g class="values"></g></g><g class="tile" style="opacity: 1;" transform="translate(36.373066958946424,-21)"><g class="polygon"><polygon points="8.083,0.000 4.041,7.000 -4.041,7.000 -8.083,0.000 -4.041,-7.000 4.041,-7.000" transform="rotate(0)"></polygon></g><g class="paths"><path d="M 0 0" transform="rotate(0)"></path></g><g class="center"></g><g class="circle"></g><g class="axes"></g><g class="coordinates"></g><g class="tiles"></g><g class="values"></g></g><g class="tile" style="opacity: 1;" transform="translate(36.373066958946424,-7.000000000000002)"><g class="polygon"><polygon points="8.083,0.000 4.041,7.000 -4.041,7.000 -8.083,0.000 -4.041,-7.000 4.041,-7.000" transform="rotate(0)"></polygon></g><g class="paths"><path d="M 0 0" transform="rotate(0)"></path></g><g class="center"></g><g class="circle"></g><g class="axes"></g><g class="coordinates"></g><g class="tiles"></g><g class="values"></g></g><g class="tile" style="opacity: 1;" transform="translate(36.373066958946424,6.999999999999998)"><g class="polygon"><polygon points="8.083,0.000 4.041,7.000 -4.041,7.000 -8.083,0.000 -4.041,-7.000 4.041,-7.000" transform="rotate(0)"></polygon></g><g class="paths"><path d="M 0 0" transform="rotate(0)"></path></g><g class="center"></g><g class="circle"></g><g class="axes"></g><g class="coordinates"></g><g class="tiles"></g><g class="values"></g></g><g class="tile" style="opacity: 1;" transform="translate(36.373066958946424,21)"><g class="polygon"><polygon points="8.083,0.000 4.041,7.000 -4.041,7.000 -8.083,0.000 -4.041,-7.000 4.041,-7.000" transform="rotate(0)"></polygon></g><g class="paths"><path d="M 0 0" transform="rotate(0)"></path></g><g class="center"></g><g class="circle"></g><g class="axes"></g><g class="coordinates"></g><g class="tiles"></g><g class="values"></g></g></g><g transform="translate(50.00000000000001,50)"></g></svg>