<svg version="1.1" xmlns="http://www.w3.org/2000/svg" width="340" height="240"><style>text {
  font-size: 14px;
  text-anchor: middle;
  font-family: Arial, Helvetica, sans-serif;
}

.tile polygon {
  fill: hsl(60, 10%, 95%);
  stroke: hsl(0, 0%, 70%);
  stroke-width: 0.5;
}

.path {
  fill: none;
  stroke: hsl(60, 20%, 15%);
  stroke-width: 12px;
  stroke-opacity: 0.4;
  stroke-linecap: round;
  stroke-linejoin: round;
}

.q {
  fill: hsl(90, 100%, 35%);
}

.r {
  fill: hsl(200, 100%, 45%);
}

.s {
  fill: hsl(300, 80%, 50%);
}

.highlight polygon {
  fill: hsl(200, 50%, 80%);
}

.highlight-dark polygon {
  fill: hsl(200, 10%, 35%);
}

.marker {
  fill: #308dde;
}

.center {
  fill: hsl(160, 85%, 75%);
}

.circle {
  fill: hsla(240, 5%, 75%, 0.12);
  stroke: hsl(0, 0%, 70%);
  stroke-width: 0.5;
  stroke-opacity: 0.95;
}
</style><g transform="translate(101.80049945197544,187.5)"><g class="tile" style="opacity: 1;" transform="translate(0,0)"><g class="polygon"><polygon points="22.500,0.000 11.250,19.486 -11.250,19.486 -22.500,0.000 -11.250,-19.486 11.250,-19.486" transform="rotate(-30)"></polygon></g><g class="center"></g><g class="circle"></g><g class="axes"></g><g class="coordinates"><text y="0.4em"><tspan class="x">0</tspan><tspan>, </tspan><tspan class="y">0</tspan></text></g><g class="tiles"></g><g class="values"></g></g><g class="tile" style="opacity: 1;" transform="translate(-19.48557158514987,-33.75)"><g class="polygon"><polygon points="22.500,0.000 11.250,19.486 -11.250,19.486 -22.500,0.000 -11.250,-19.486 11.250,-19.486" transform="rotate(-30)"></polygon></g><g class="center"></g><g class="circle"></g><g class="axes"></g><g class="coordinates"><text y="0.4em"><tspan class="x">0</tspan><tspan>, </tspan><tspan class="y">1</tspan></text></g><g class="tiles"></g><g class="values"></g></g><g class="tile" style="opacity: 1;" transform="translate(0,-67.5)"><g class="polygon"><polygon points="22.500,0.000 11.250,19.486 -11.250,19.486 -22.500,0.000 -11.250,-19.486 11.250,-19.486" transform="rotate(-30)"></polygon></g><g class="center"></g><g class="circle"></g><g class="axes"></g><g class="coordinates"><text y="0.4em"><tspan class="x">0</tspan><tspan>, </tspan><tspan class="y">2</tspan></text></g><g class="tiles"></g><g class="values"></g></g><g class="tile" style="opacity: 1;" transform="translate(-19.485571585149863,-101.25)"><g class="polygon"><polygon points="22.500,0.000 11.250,19.486 -11.250,19.486 -22.500,0.000 -11.250,-19.486 11.250,-19.486" transform="rotate(-30)"></polygon></g><g class="center"></g><g class="circle"></g><g class="axes"></g><g class="coordinates"><text y="0.4em"><tspan class="x">0</tspan><tspan>, </tspan><tspan class="y">3</tspan></text></g><g class="tiles"></g><g class="values"></g></g><g class="tile" style="opacity: 1;" transform="translate(0,-135)"><g class="polygon"><polygon points="22.500,0.000 11.250,19.486 -11.250,19.486 -22.500,0.000 -11.250,-19.486 11.250,-19.486" transform="rotate(-30)"></polygon></g><g class="center"></g><g class="circle"></g><g class="axes"></g><g class="coordinates"><text y="0.4em"><tspan class="x">0</tspan><tspan>, </tspan><tspan class="y">4</tspan></text></g><g class="tiles"></g><g class="values"></g></g><g class="tile" style="opacity: 1;" transform="translate(38.97114317029974,0)"><g class="polygon"><polygon points="22.500,0.000 11.250,19.486 -11.250,19.486 -22.500,0.000 -11.250,-19.486 11.250,-19.486" transform="rotate(-30)"></polygon></g><g class="center"></g><g class="circle"></g><g class="axes"></g><g class="coordinates"><text y="0.4em"><tspan class="x">1</tspan><tspan>, </tspan><tspan class="y">0</tspan></text></g><g class="tiles"></g><g class="values"></g></g><g class="tile" style="opacity: 1;" transform="translate(19.48557158514987,-33.75)"><g class="polygon"><polygon points="22.500,0.000 11.250,19.486 -11.250,19.486 -22.500,0.000 -11.250,-19.486 11.250,-19.486" transform="rotate(-30)"></polygon></g><g class="center"></g><g class="circle"></g><g class="axes"></g><g class="coordinates"><text y="0.4em"><tspan class="x">1</tspan><tspan>, </tspan><tspan class="y">1</tspan></text></g><g class="tiles"></g><g class="values"></g></g><g class="tile" style="opacity: 1;" transform="translate(38.97114317029974,-67.5)"><g class="polygon"><polygon points="22.500,0.000 11.250,19.486 -11.250,19.486 -22.500,0.000 -11.250,-19.486 11.250,-19.486" transform="rotate(-30)"></polygon></g><g class="center"></g><g class="circle"></g><g class="axes"></g><g class="coordinates"><text y="0.4em"><tspan class="x">1</tspan><tspan>, </tspan><tspan class="y">2</tspan></text></g><g class="tiles"></g><g class="values"></g></g><g class="tile" style="opacity: 1;" transform="translate(19.485571585149874,-101.25)"><g class="polygon"><polygon points="22.500,0.000 11.250,19.486 -11.250,19.486 -22.500,0.000 -11.250,-19.486 11.250,-19.486" transform="rotate(-30)"></polygon></g><g class="center"></g><g class="circle"></g><g class="axes"></g><g class="coordinates"><text y="0.4em"><tspan class="x">1</tspan><tspan>, </tspan><tspan class="y">3</tspan></text></g><g class="tiles"></g><g class="values"></g></g><g class="tile" style="opacity: 1;" transform="translate(38.97114317029974,-135)"><g class="polygon"><polygon points="22.500,0.000 11.250,19.486 -11.250,19.486 -22.500,0.000 -11.250,-19.486 11.250,-19.486" transform="rotate(-30)"></polygon></g><g class="center"></g><g class="circle"></g><g class="axes"></g><g class="coordinates"><text y="0.4em"><tspan class="x">1</tspan><tspan>, </tspan><tspan class="y">4</tspan></text></g><g class="tiles"></g><g class="values"></g></g><g class="tile" style="opacity: 1;" transform="translate(77.94228634059948,0)"><g class="polygon"><polygon points="22.500,0.000 11.250,19.486 -11.250,19.486 -22.500,0.000 -11.250,-19.486 11.250,-19.486" transform="rotate(-30)"></polygon></g><g class="center"></g><g class="circle"></g><g class="axes"></g><g class="coordinates"><text y="0.4em"><tspan class="x">2</tspan><tspan>, </tspan><tspan class="y">0</tspan></text></g><g class="tiles"></g><g class="values"></g></g><g class="tile" style="opacity: 1;" transform="translate(58.45671475544961,-33.75)"><g class="polygon"><polygon points="22.500,0.000 11.250,19.486 -11.250,19.486 -22.500,0.000 -11.250,-19.486 11.250,-19.486" transform="rotate(-30)"></polygon></g><g class="center"></g><g class="circle"></g><g class="axes"></g><g class="coordinates"><text y="0.4em"><tspan class="x">2</tspan><tspan>, </tspan><tspan class="y">1</tspan></text></g><g class="tiles"></g><g class="values"></g></g><g class="tile" style="opacity: 1;" transform="translate(77.94228634059948,-67.5)"><g class="polygon"><polygon points="22.500,0.000 11.250,19.486 -11.250,19.486 -22.500,0.000 -11.250,-19.486 11.250,-19.486" transform="rotate(-30)"></polygon></g><g class="center"></g><g class="circle"></g><g class="axes"></g><g class="coordinates"><text y="0.4em"><tspan class="x">2</tspan><tspan>, </tspan><tspan class="y">2</tspan></text></g><g class="tiles"></g><g class="values"></g></g><g class="tile" style="opacity: 1;" transform="translate(58.45671475544961,-101.25)"><g class="polygon"><polygon points="22.500,0.000 11.250,19.486 -11.250,19.486 -22.500,0.000 -11.250,-19.486 11.250,-19.486" transform="rotate(-30)"></polygon></g><g class="center"></g><g class="circle"></g><g class="axes"></g><g class="coordinates"><text y="0.4em"><tspan class="x">2</tspan><tspan>, </tspan><tspan class="y">3</tspan></text></g><g class="tiles"></g><g class="values"></g></g><g class="tile" style="opacity: 1;" transform="translate(77.94228634059948,-135)"><g class="polygon"><polygon points="22.500,0.000 11.250,19.486 -11.250,19.486 -22.500,0.000 -11.250,-19.486 11.250,-19.486" transform="rotate(-30)"></polygon></g><g class="center"></g><g class="circle"></g><g class="axes"></g><g class="coordinates"><text y="0.4em"><tspan class="x">2</tspan><tspan>, </tspan><tspan class="y">4</tspan></text></g><g class="tiles"></g><g class="values"></g></g><g class="tile" style="opacity: 1;" transform="translate(116.91342951089922,0)"><g class="polygon"><polygon points="22.500,0.000 11.250,19.486 -11.250,19.486 -22.500,0.000 -11.250,-19.486 11.250,-19.486" transform="rotate(-30)"></polygon></g><g class="center"></g><g class="circle"></g><g class="axes"></g><g class="coordinates"><text y="0.4em"><tspan class="x">3</tspan><tspan>, </tspan><tspan class="y">0</tspan></text></g><g class="tiles"></g><g class="values"></g></g><g class="tile" style="opacity: 1;" transform="translate(97.42785792574934,-33.75)"><g class="polygon"><polygon points="22.500,0.000 11.250,19.486 -11.250,19.486 -22.500,0.000 -11.250,-19.486 11.250,-19.486" transform="rotate(-30)"></polygon></g><g class="center"></g><g class="circle"></g><g class="axes"></g><g class="coordinates"><text y="0.4em"><tspan class="x">3</tspan><tspan>, </tspan><tspan class="y">1</tspan></text></g><g class="tiles"></g><g class="values"></g></g><g class="tile" style="opacity: 1;" transform="translate(116.91342951089922,-67.5)"><g class="polygon"><polygon points="22.500,0.000 11.250,19.486 -11.250,19.486 -22.500,0.000 -11.250,-19.486 11.250,-19.486" transform="rotate(-30)"></polygon></g><g class="center"></g><g class="circle"></g><g class="axes"></g><g class="coordinates"><text y="0.4em"><tspan class="x">3</tspan><tspan>, </tspan><tspan class="y">2</tspan></text></g><g class="tiles"></g><g class="values"></g></g><g class="tile" style="opacity: 1;" transform="translate(97.42785792574934,-101.25)"><g class="polygon"><polygon points="22.500,0.000 11.250,19.486 -11.250,19.486 -22.500,0.000 -11.250,-19.486 11.250,-19.486" transform="rotate(-30)"></polygon></g><g class="center"></g><g class="circle"></g><g class="axes"></g><g class="coordinates"><text y="0.4em"><tspan class="x">3</tspan><tspan>, </tspan><tspan class="y">3</tspan></text></g><g class="tiles"></g><g class="values"></g></g><g class="tile" style="opacity: 1;" transform="translate(116.91342951089922,-135)"><g class="polygon"><polygon points="22.500,0.000 11.250,19.486 -11.250,19.486 -22.500,0.000 -11.250,-19.486 11.250,-19.486" transform="rotate(-30)"></polygon></g><g class="center"></g><g class="circle"></g><g class="axes"></g><g class="coordinates"><text y="0.4em"><tspan class="x">3</tspan><tspan>, </tspan><tspan class="y">4</tspan></text></g><g class="tiles"></g><g class="values"></g></g><g class="tile" style="opacity: 1;" transform="translate(155.88457268119896,0)"><g class="polygon"><polygon points="22.500,0.000 11.250,19.486 -11.250,19.486 -22.500,0.000 -11.250,-19.486 11.250,-19.486" transform="rotate(-30)"></polygon></g><g class="center"></g><g class="circle"></g><g class="axes"></g><g class="coordinates"><text y="0.4em"><tspan class="x">4</tspan><tspan>, </tspan><tspan class="y">0</tspan></text></g><g class="tiles"></g><g class="values"></g></g><g class="tile" style="opacity: 1;" transform="translate(136.3990010960491,-33.75)"><g class="polygon"><polygon points="22.500,0.000 11.250,19.486 -11.250,19.486 -22.500,0.000 -11.250,-19.486 11.250,-19.486" transform="rotate(-30)"></polygon></g><g class="center"></g><g class="circle"></g><g class="axes"></g><g class="coordinates"><text y="0.4em"><tspan class="x">4</tspan><tspan>, </tspan><tspan class="y">1</tspan></text></g><g class="tiles"></g><g class="values"></g></g><g class="tile" style="opacity: 1;" transform="translate(155.88457268119896,-67.5)"><g class="polygon"><polygon points="22.500,0.000 11.250,19.486 -11.250,19.486 -22.500,0.000 -11.250,-19.486 11.250,-19.486" transform="rotate(-30)"></polygon></g><g class="center"></g><g class="circle"></g><g class="axes"></g><g class="coordinates"><text y="0.4em"><tspan class="x">4</tspan><tspan>, </tspan><tspan class="y">2</tspan></text></g><g class="tiles"></g><g class="values"></g></g><g class="tile" style="opacity: 1;" transform="translate(136.3990010960491,-101.25)"><g class="polygon"><polygon points="22.500,0.000 11.250,19.486 -11.250,19.486 -22.500,0.000 -11.250,-19.486 11.250,-19.486" transform="rotate(-30)"></polygon></g><g class="center"></g><g class="circle"></g><g class="axes"></g><g class="coordinates"><text y="0.4em"><tspan class="x">4</tspan><tspan>, </tspan><tspan class="y">3</tspan></text></g><g class="tiles"></g><g class="values"></g></g><g class="tile" style="opacity: 1;" transform="translate(155.88457268119896,-135)"><g class="polygon"><polygon points="22.500,0.000 11.250,19.486 -11.250,19.486 -22.500,0.000 -11.250,-19.486 11.250,-19.486" transform="rotate(-30)"></polygon></g><g class="center"></g><g class="circle"></g><g class="axes"></g><g class="coordinates"><text y="0.4em"><tspan class="x">4</tspan><tspan>, </tspan><tspan class="y">4</tspan></text></g><g class="tiles"></g><g class="values"></g></g></g><g transform="translate(101.80049945197544,187.5)"></g></svg>