<svg version="1.1" xmlns="http://www.w3.org/2000/svg" width="100" height="100"><style>text {
  font-size: 14px;
  text-anchor: middle;
  font-family: Arial, Helvetica, sans-serif;
}

.tile polygon {
  fill: hsl(60, 10%, 95%);
  stroke: hsl(0, 0%, 70%);
  stroke-width: 0.5;
}

.tile .paths path {
  fill: rgba(255,0,0,0.2);
  stroke: rgba(255,0,255,0.2);
  stroke-width: 0.5;
}

.path {
  fill: none;
  stroke: hsl(60, 20%, 15%);
  stroke-width: 12px;
  stroke-opacity: 0.4;
  stroke-linecap: round;
  stroke-linejoin: round;
}

.q {
  fill: hsl(90, 100%, 35%);
}

.r {
  fill: hsl(200, 100%, 45%);
}

.s {
  fill: hsl(300, 80%, 50%);
}

.highlight polygon {
  fill: hsl(200, 50%, 80%);
}

.highlight-dark polygon {
  fill: hsl(200, 10%, 35%);
}

.marker {
  fill: #308dde;
}

.center {
  fill: hsl(160, 85%, 75%);
}

.circle {
  fill: hsla(240, 5%, 75%, 0.12);
  stroke: hsl(0, 0%, 70%);
  stroke-width: 0.5;
  stroke-opacity: 0.95;
}
</style><g transform="translate(13.049582771863946,79.33333333333333)"><g class="tile" style="opacity: 1;" transform="translate(0,5.333333333333334)"><g class="polygon"><polygon points="0.000,-10.667 -9.238,5.333 9.238,5.333" transform="rotate(0)"></polygon></g><g class="paths"><path d="M 0 0" transform="rotate(0)"></path></g><g class="center"></g><g class="circle"></g><g class="axes"></g><g class="coordinates"></g><g class="tiles"></g><g class="values"></g></g><g class="tile" style="opacity: 1;" transform="translate(9.237604307034013,0)"><g class="polygon"><polygon points="0.000,10.667 -9.238,-5.333 9.238,-5.333" transform="rotate(0)"></polygon></g><g class="paths"><path d="M 0 0" transform="rotate(0)"></path></g><g class="center"></g><g class="circle"></g><g class="axes"></g><g class="coordinates"></g><g class="tiles"></g><g class="values"></g></g><g class="tile" style="opacity: 1;" transform="translate(18.475208614068027,5.333333333333334)"><g class="polygon"><polygon points="0.000,-10.667 -9.238,5.333 9.238,5.333" transform="rotate(0)"></polygon></g><g class="paths"><path d="M 0 0" transform="rotate(0)"></path></g><g class="center"></g><g class="circle"></g><g class="axes"></g><g class="coordinates"></g><g class="tiles"></g><g class="values"></g></g><g class="tile" style="opacity: 1;" transform="translate(27.712812921102042,0)"><g class="polygon"><polygon points="0.000,10.667 -9.238,-5.333 9.238,-5.333" transform="rotate(0)"></polygon></g><g class="paths"><path d="M 0 0" transform="rotate(0)"></path></g><g class="center"></g><g class="circle"></g><g class="axes"></g><g class="coordinates"></g><g class="tiles"></g><g class="values"></g></g><g class="tile" style="opacity: 1;" transform="translate(36.950417228136054,5.333333333333334)"><g class="polygon"><polygon points="0.000,-10.667 -9.238,5.333 9.238,5.333" transform="rotate(0)"></polygon></g><g class="paths"><path d="M 0 0" transform="rotate(0)"></path></g><g class="center"></g><g class="circle"></g><g class="axes"></g><g class="coordinates"></g><g class="tiles"></g><g class="values"></g></g><g class="tile" style="opacity: 1;" transform="translate(46.188021535170066,0)"><g class="polygon"><polygon points="0.000,10.667 -9.238,-5.333 9.238,-5.333" transform="rotate(0)"></polygon></g><g class="paths"><path d="M 0 0" transform="rotate(0)"></path></g><g class="center"></g><g class="circle"></g><g class="axes"></g><g class="coordinates"></g><g class="tiles"></g><g class="values"></g></g><g class="tile" style="opacity: 1;" transform="translate(55.425625842204084,5.333333333333334)"><g class="polygon"><polygon points="0.000,-10.667 -9.238,5.333 9.238,5.333" transform="rotate(0)"></polygon></g><g class="paths"><path d="M 0 0" transform="rotate(0)"></path></g><g class="center"></g><g class="circle"></g><g class="axes"></g><g class="coordinates"></g><g class="tiles"></g><g class="values"></g></g><g class="tile" style="opacity: 1;" transform="translate(64.66323014923809,0)"><g class="polygon"><polygon points="0.000,10.667 -9.238,-5.333 9.238,-5.333" transform="rotate(0)"></polygon></g><g class="paths"><path d="M 0 0" transform="rotate(0)"></path></g><g class="center"></g><g class="circle"></g><g class="axes"></g><g class="coordinates"></g><g class="tiles"></g><g class="values"></g></g><g class="tile" style="opacity: 1;" transform="translate(73.90083445627211,5.333333333333334)"><g class="polygon"><polygon points="0.000,-10.667 -9.238,5.333 9.238,5.333" transform="rotate(0)"></polygon></g><g class="paths"><path d="M 0 0" transform="rotate(0)"></path></g><g class="center"></g><g class="circle"></g><g class="axes"></g><g class="coordinates"></g><g class="tiles"></g><g class="values"></g></g><g class="tile" style="opacity: 1;" transform="translate(9.237604307034013,-10.666666666666668)"><g class="polygon"><polygon points="0.000,-10.667 -9.238,5.333 9.238,5.333" transform="rotate(0)"></polygon></g><g class="paths"><path d="M 0 0" transform="rotate(0)"></path></g><g class="center"></g><g class="circle"></g><g class="axes"></g><g class="coordinates"></g><g class="tiles"></g><g class="values"></g></g><g class="tile" style="opacity: 1;" transform="translate(18.475208614068027,-16)"><g class="polygon"><polygon points="0.000,10.667 -9.238,-5.333 9.238,-5.333" transform="rotate(0)"></polygon></g><g class="paths"><path d="M 0 0" transform="rotate(0)"></path></g><g class="center"></g><g class="circle"></g><g class="axes"></g><g class="coordinates"></g><g class="tiles"></g><g class="values"></g></g><g class="tile" style="opacity: 1;" transform="translate(27.712812921102042,-10.666666666666668)"><g class="polygon"><polygon points="0.000,-10.667 -9.238,5.333 9.238,5.333" transform="rotate(0)"></polygon></g><g class="paths"><path d="M 0 0" transform="rotate(0)"></path></g><g class="center"></g><g class="circle"></g><g class="axes"></g><g class="coordinates"></g><g class="tiles"></g><g class="values"></g></g><g class="tile" style="opacity: 1;" transform="translate(36.950417228136054,-16)"><g class="polygon"><polygon points="0.000,10.667 -9.238,-5.333 9.238,-5.333" transform="rotate(0)"></polygon></g><g class="paths"><path d="M 0 0" transform="rotate(0)"></path></g><g class="center"></g><g class="circle"></g><g class="axes"></g><g class="coordinates"></g><g class="tiles"></g><g class="values"></g></g><g class="tile" style="opacity: 1;" transform="translate(46.188021535170066,-10.666666666666668)"><g class="polygon"><polygon points="0.000,-10.667 -9.238,5.333 9.238,5.333" transform="rotate(0)"></polygon></g><g class="paths"><path d="M 0 0" transform="rotate(0)"></path></g><g class="center"></g><g class="circle"></g><g class="axes"></g><g class="coordinates"></g><g class="tiles"></g><g class="values"></g></g><g class="tile" style="opacity: 1;" transform="translate(55.425625842204084,-16)"><g class="polygon"><polygon points="0.000,10.667 -9.238,-5.333 9.238,-5.333" transform="rotate(0)"></polygon></g><g class="paths"><path d="M 0 0" transform="rotate(0)"></path></g><g class="center"></g><g class="circle"></g><g class="axes"></g><g class="coordinates"></g><g class="tiles"></g><g class="values"></g></g><g class="tile" style="opacity: 1;" transform="translate(64.66323014923809,-10.666666666666668)"><g class="polygon"><polygon points="0.000,-10.667 -9.238,5.333 9.238,5.333" transform="rotate(0)"></polygon></g><g class="paths"><path d="M 0 0" transform="rotate(0)"></path></g><g class="center"></g><g class="circle"></g><g class="axes"></g><g class="coordinates"></g><g class="tiles"></g><g class="values"></g></g><g class="tile" style="opacity: 1;" transform="translate(18.475208614068027,-26.666666666666668)"><g class="polygon"><polygon points="0.000,-10.667 -9.238,5.333 9.238,5.333" transform="rotate(0)"></polygon></g><g class="paths"><path d="M 0 0" transform="rotate(0)"></path></g><g class="center"></g><g class="circle"></g><g class="axes"></g><g class="coordinates"></g><g class="tiles"></g><g class="values"></g></g><g class="tile" style="opacity: 1;" transform="translate(27.712812921102042,-32)"><g class="polygon"><polygon points="0.000,10.667 -9.238,-5.333 9.238,-5.333" transform="rotate(0)"></polygon></g><g class="paths"><path d="M 0 0" transform="rotate(0)"></path></g><g class="center"></g><g class="circle"></g><g class="axes"></g><g class="coordinates"></g><g class="tiles"></g><g class="values"></g></g><g class="tile" style="opacity: 1;" transform="translate(36.950417228136054,-26.666666666666668)"><g class="polygon"><polygon points="0.000,-10.667 -9.238,5.333 9.238,5.333" transform="rotate(0)"></polygon></g><g class="paths"><path d="M 0 0" transform="rotate(0)"></path></g><g class="center"></g><g class="circle"></g><g class="axes"></g><g class="coordinates"></g><g class="tiles"></g><g class="values"></g></g><g class="tile" style="opacity: 1;" transform="translate(46.188021535170066,-32)"><g class="polygon"><polygon points="0.000,10.667 -9.238,-5.333 9.238,-5.333" transform="rotate(0)"></polygon></g><g class="paths"><path d="M 0 0" transform="rotate(0)"></path></g><g class="center"></g><g class="circle"></g><g class="axes"></g><g class="coordinates"></g><g class="tiles"></g><g class="values"></g></g><g class="tile" style="opacity: 1;" transform="translate(55.425625842204084,-26.666666666666668)"><g class="polygon"><polygon points="0.000,-10.667 -9.238,5.333 9.238,5.333" transform="rotate(0)"></polygon></g><g class="paths"><path d="M 0 0" transform="rotate(0)"></path></g><g class="center"></g><g class="circle"></g><g class="axes"></g><g class="coordinates"></g><g class="tiles"></g><g class="values"></g></g><g class="tile" style="opacity: 1;" transform="translate(27.712812921102042,-42.66666666666667)"><g class="polygon"><polygon points="0.000,-10.667 -9.238,5.333 9.238,5.333" transform="rotate(0)"></polygon></g><g class="paths"><path d="M 0 0" transform="rotate(0)"></path></g><g class="center"></g><g class="circle"></g><g class="axes"></g><g class="coordinates"></g><g class="tiles"></g><g class="values"></g></g><g class="tile" style="opacity: 1;" transform="translate(36.950417228136054,-48.00000000000001)"><g class="polygon"><polygon points="0.000,10.667 -9.238,-5.333 9.238,-5.333" transform="rotate(0)"></polygon></g><g class="paths"><path d="M 0 0" transform="rotate(0)"></path></g><g class="center"></g><g class="circle"></g><g class="axes"></g><g class="coordinates"></g><g class="tiles"></g><g class="values"></g></g><g class="tile" style="opacity: 1;" transform="translate(46.188021535170066,-42.66666666666667)"><g class="polygon"><polygon points="0.000,-10.667 -9.238,5.333 9.238,5.333" transform="rotate(0)"></polygon></g><g class="paths"><path d="M 0 0" transform="rotate(0)"></path></g><g class="center"></g><g class="circle"></g><g class="axes"></g><g class="coordinates"></g><g class="tiles"></g><g class="values"></g></g><g class="tile" style="opacity: 1;" transform="translate(36.950417228136054,-58.666666666666664)"><g class="polygon"><polygon points="0.000,-10.667 -9.238,5.333 9.238,5.333" transform="rotate(0)"></polygon></g><g class="paths"><path d="M 0 0" transform="rotate(0)"></path></g><g class="center"></g><g class="circle"></g><g class="axes"></g><g class="coordinates"></g><g class="tiles"></g><g class="values"></g></g></g><g transform="translate(13.049582771863946,79.33333333333333)"></g></svg>